<svg width="4111" height="1302" viewBox="0 0 4111 1302" fill="none" xmlns="http://www.w3.org/2000/svg">
<circle cx="639.856" cy="639.856" r="635" transform="rotate(0.439877 639.856 639.856)" fill="#E30514"/>
<path d="M3952.3 949.515C3931.21 948.572 3910.66 944.506 3890.65 937.319C3870.91 929.872 3853.53 919.969 3838.52 907.61C3823.76 894.991 3813.06 880.581 3806.41 864.377L3862.87 840.582C3866.71 849.47 3873.68 857.86 3883.78 865.753C3893.88 873.646 3905.55 879.988 3918.8 884.779C3932.05 889.57 3945.45 892.018 3958.99 892.122C3973.32 892.232 3986.76 890.121 3999.29 885.788C4011.83 881.455 4022.04 875.021 4029.92 866.484C4038.07 857.689 4042.19 847.169 4042.28 834.926C4042.38 821.9 4038.03 811.707 4029.23 804.345C4020.69 796.724 4009.79 790.779 3996.54 786.509C3983.55 781.98 3970.29 777.71 3956.78 773.698C3930 766.719 3906.09 758.459 3885.06 748.919C3864.04 739.119 3847.46 726.877 3835.33 712.195C3823.46 697.254 3817.61 678.321 3817.79 655.397C3817.97 631.17 3824.78 610.25 3838.2 592.638C3851.88 575.028 3869.7 561.487 3891.66 552.016C3913.61 542.546 3937.09 537.906 3962.1 538.098C3993.62 538.34 4022.36 545.335 4048.3 559.081C4074.25 572.827 4093.52 591.342 4106.1 614.625L4053.12 645.089C4048.76 635.677 4042.05 627.419 4032.98 620.316C4023.92 612.952 4013.55 607.14 4001.86 602.882C3990.17 598.624 3978.2 596.318 3965.96 595.964C3950.85 595.326 3936.64 597.171 3923.32 601.498C3910.26 605.826 3899.66 612.519 3891.51 621.574C3883.63 630.371 3879.64 641.413 3879.53 654.699C3879.43 667.724 3883.53 677.655 3891.81 684.492C3900.36 691.331 3911.39 696.887 3924.9 701.159C3938.68 705.173 3953.62 709.847 3969.73 715.181C3993.38 722.917 4015.46 731.814 4035.96 741.871C4056.46 751.929 4072.91 764.43 4085.3 779.374C4097.95 794.321 4104.06 812.735 4103.63 834.615C4103.45 858.582 4096.13 879.497 4081.66 897.362C4067.2 914.967 4048.47 928.37 4025.47 937.572C4002.73 946.776 3978.34 950.757 3952.3 949.515Z" fill="#939598"/>
<path d="M3756.9 697.524L3755.03 940.575L3689.39 940.071L3691.14 711.478C3691.29 691.679 3686.61 673.668 3677.1 657.442C3667.58 641.217 3654.79 628.353 3638.71 618.851C3622.63 609.088 3604.69 604.131 3584.89 603.979C3565.35 603.829 3547.34 608.51 3530.86 618.023C3514.63 627.277 3501.64 639.943 3491.88 656.02C3482.12 672.098 3477.16 690.035 3477.01 709.834L3475.25 938.427L3409.6 937.923L3412.6 547.165L3478.25 547.669L3477.88 596.514C3491.82 578.385 3509.39 564.061 3530.57 553.542C3551.76 542.763 3574.72 537.468 3599.47 537.658C3628.65 537.882 3655.16 545.25 3679.02 559.762C3703.14 574.015 3722.14 593.179 3736.02 617.253C3750.17 641.33 3757.13 668.087 3756.9 697.524Z" fill="#939598"/>
<path d="M3150.25 946.092C3114.3 945.816 3081.55 936.316 3051.99 917.592C3022.7 898.87 2999.31 873.941 2981.84 842.805C2964.62 811.411 2956.16 776.827 2956.45 739.053C2956.67 710.398 2961.95 683.735 2972.3 659.065C2982.66 634.135 2996.76 612.359 3014.62 593.739C3032.74 574.86 3053.69 560.171 3077.48 549.672C3101.27 539.174 3126.58 534.027 3153.41 534.233C3182.85 534.459 3209.77 540.658 3234.16 552.829C3258.82 564.742 3279.79 581.316 3297.09 602.551C3314.64 623.788 3327.61 648.376 3335.99 676.316C3344.63 704.258 3347.66 734.111 3345.07 765.875L3026.21 763.427C3029.17 785.594 3036.31 805.448 3047.64 822.99C3058.97 840.271 3073.45 854.06 3091.09 864.355C3108.99 874.653 3128.87 880.016 3150.76 880.445C3174.2 880.625 3195.48 874.796 3214.59 862.959C3233.7 850.861 3249.2 834.307 3261.08 813.296L3327.78 829.439C3311.88 863.966 3288.09 892.18 3256.4 914.081C3224.71 935.722 3189.33 946.392 3150.25 946.092ZM3024.66 711.832L3279.43 713.788C3277.51 691.889 3270.63 671.907 3258.79 653.84C3246.94 635.512 3231.82 620.807 3213.4 609.724C3194.99 598.641 3174.85 593.015 3152.96 592.847C3131.08 592.679 3110.98 597.865 3092.66 608.406C3074.35 618.947 3059.13 633.289 3047 651.432C3035.14 669.317 3027.69 689.45 3024.66 711.832Z" fill="#939598"/>
<path d="M2822.7 933.418L2827.2 347.282L2892.85 347.786L2888.35 933.922L2822.7 933.418Z" fill="#939598"/>
<path d="M2567.17 941.615C2531.22 941.339 2498.46 931.84 2468.91 913.116C2439.61 894.394 2416.23 869.465 2398.75 838.329C2381.54 806.934 2373.08 772.35 2373.37 734.577C2373.59 705.921 2378.87 679.259 2389.22 654.589C2399.57 629.658 2413.68 607.883 2431.54 589.262C2449.66 570.383 2470.61 555.695 2494.4 545.196C2518.19 534.697 2543.5 529.551 2570.33 529.757C2599.77 529.983 2626.68 536.181 2651.08 548.353C2675.74 560.265 2696.71 576.839 2714 598.074C2731.55 619.311 2744.52 643.9 2752.91 671.84C2761.55 699.782 2764.58 729.634 2761.99 761.398L2443.13 758.95C2446.08 781.117 2453.23 800.971 2464.56 818.513C2475.89 835.795 2490.37 849.583 2508.01 859.879C2525.9 870.177 2545.79 875.54 2567.67 875.968C2591.12 876.148 2612.39 870.32 2631.5 858.482C2650.61 846.385 2666.11 829.83 2678 808.819L2744.7 824.963C2728.8 859.49 2705.01 887.704 2673.31 909.605C2641.63 931.245 2606.24 941.915 2567.17 941.615ZM2441.57 707.355L2696.35 709.311C2694.43 687.413 2687.55 667.43 2675.7 649.363C2663.86 631.036 2648.73 616.331 2630.32 605.247C2611.91 594.164 2591.76 588.539 2569.88 588.371C2548 588.203 2527.9 593.389 2509.58 603.93C2491.26 614.47 2476.04 628.812 2463.92 646.956C2452.06 664.841 2444.61 684.974 2441.57 707.355Z" fill="black"/>
<path d="M2136.58 928.149L2139.58 537.392L2205.23 537.896L2204.86 586.74C2218.8 568.611 2236.37 554.287 2257.55 543.768C2278.74 532.989 2301.7 527.694 2326.45 527.884C2341.56 528 2356.13 530.066 2370.17 534.082L2343.1 599.525C2332.44 596.057 2322.03 594.283 2311.87 594.205C2292.34 594.055 2274.32 598.737 2257.84 608.249C2241.61 617.503 2228.62 630.169 2218.86 646.247C2209.1 662.324 2204.14 680.262 2203.99 700.06L2202.23 928.653L2136.58 928.149Z" fill="black"/>
<path d="M1713.78 776.408L1715.64 534.138L1781.29 534.642L1779.54 762.454C1779.39 782.252 1784.07 800.264 1793.58 816.489C1803.1 832.715 1815.89 845.709 1831.97 855.471C1848.31 864.975 1866.25 869.803 1885.79 869.953C1905.59 870.105 1923.47 865.552 1939.43 856.296C1955.65 846.782 1968.65 833.986 1978.41 817.908C1988.17 801.831 1993.13 783.893 1993.28 764.095L1995.03 536.283L2060.68 536.787L2058.07 927.548L1992.42 927.044L1992.41 877.414C1978.47 895.544 1960.9 909.998 1939.72 920.777C1918.53 931.296 1895.7 936.461 1871.21 936.273C1842.03 936.049 1815.39 928.811 1791.27 914.557C1767.41 900.046 1748.41 880.752 1734.27 856.675C1720.38 832.601 1713.55 805.845 1713.78 776.408Z" fill="black"/>
<path d="M1605.25 820.904L1663.62 853.005C1645.72 877.617 1623.03 897.243 1595.57 911.882C1568.36 926.522 1538.87 933.721 1507.08 933.477C1471.13 933.201 1438.38 923.701 1408.83 904.977C1379.53 886.255 1356.15 861.326 1338.67 830.19C1321.46 798.795 1312.99 764.212 1313.28 726.438C1313.5 697.783 1318.79 671.12 1329.14 646.45C1339.49 621.519 1353.59 599.744 1371.45 581.124C1389.57 562.245 1410.53 547.556 1434.32 537.057C1458.1 526.559 1483.41 521.412 1510.25 521.618C1542.03 521.862 1571.41 529.513 1598.39 544.569C1625.63 559.628 1648.01 579.73 1665.53 604.874L1606.67 636.076C1594.29 620.61 1579.53 608.643 1562.4 600.175C1545.27 591.707 1527.72 587.403 1509.74 587.265C1485.52 587.079 1463.45 593.423 1443.55 606.296C1423.92 618.911 1408.29 635.855 1396.66 657.129C1385.03 678.402 1379.12 701.673 1378.93 726.942C1378.74 752.211 1384.29 775.57 1395.59 797.02C1407.15 818.211 1422.65 835.264 1442.09 848.178C1461.79 861.095 1483.62 867.646 1507.59 867.83C1526.87 867.978 1545 863.688 1562.01 854.961C1579.01 846.234 1593.42 834.881 1605.25 820.904Z" fill="black"/>
<path d="M840.387 906.128L840.398 906.135L840.409 906.142C871.022 925.536 904.971 935.368 942.102 935.653C982.48 935.963 1019.17 924.912 1051.97 902.508L1051.99 902.498L1052 902.488C1084.64 879.932 1109.21 850.814 1125.6 815.211L1128.91 808.02L1121.21 806.158L1054.51 790.014L1049.73 788.857L1047.31 793.138C1035.92 813.27 1021.16 829.004 1003.03 840.488C985.03 851.631 964.991 857.145 942.745 856.981C921.916 856.567 903.13 851.474 886.255 841.768C869.514 831.992 855.778 818.92 844.999 802.485C835.506 787.779 829.073 771.323 825.741 753.047L1136.92 755.436L1142.97 755.482L1143.46 749.452C1146.11 716.944 1143.02 686.261 1134.12 657.464C1125.5 628.761 1112.15 603.404 1094.02 581.47C1076.14 559.514 1054.43 542.354 1028.93 530.031C1003.59 517.395 975.698 511.002 945.364 510.769C917.64 510.556 891.414 515.879 866.755 526.762C842.184 537.607 820.528 552.789 801.823 572.277L801.821 572.279C783.38 591.506 768.842 613.968 758.196 639.605C747.498 665.109 742.065 692.613 741.839 722.052C741.541 760.873 750.249 796.562 768.027 828.985L768.042 829.013L768.058 829.041C786.044 861.085 810.165 886.814 840.387 906.128ZM1045.22 640.423L1045.23 640.441L1045.24 640.459C1055.19 655.632 1061.45 672.211 1064.02 690.267L824.185 688.426C827.619 669.904 834.341 653.148 844.325 638.09C855.909 620.756 870.396 607.122 887.813 597.099C905.091 587.157 924.046 582.249 944.814 582.408C965.553 582.567 984.554 587.882 1001.95 598.352C1019.5 608.915 1033.91 622.916 1045.22 640.423Z" fill="white" stroke="white" stroke-width="13.0256"/>
<path d="M402.441 917.481L402.468 917.49L402.494 917.499C430.453 927.058 459.509 931.949 489.631 932.18C525.878 932.458 559.638 926.05 590.834 912.886C622.063 899.708 647.36 880.89 666.526 856.372C686.149 831.607 696.047 802.514 696.301 769.378C696.552 736.739 687.07 708.796 667.623 685.975C648.805 663.592 623.844 645.792 592.969 632.466C562.345 618.988 529.104 609.09 493.272 602.745C468.482 598.158 446.218 592.955 426.464 587.147C407.243 581.495 392.476 573.254 381.794 562.67C371.987 552.452 366.7 537.481 366.859 516.749C366.986 500.168 372.723 485.738 384.265 473.189C396.092 460.33 411.561 450.166 430.883 442.809C450.165 435.466 470.981 431.976 493.395 432.4L493.432 432.4L493.468 432.401C513.675 432.556 532.919 435.607 551.23 441.531L551.281 441.547L551.331 441.563C569.889 447.235 585.751 455.35 599.022 465.837L599.075 465.878L599.128 465.919C612.485 476.036 621.29 487.854 625.911 501.355L628.046 507.594L634.258 505.382L696.562 483.195L702.717 481.003L700.506 474.855C691.178 448.925 675.676 426.885 654.106 408.81C632.739 390.905 608.021 377.312 580.023 368.003C552.336 358.452 523.677 353.565 494.075 353.337C458.336 353.063 424.838 359.479 393.654 372.637C362.425 385.815 337.007 404.628 317.587 429.128L317.573 429.146L317.559 429.163C298.2 453.935 288.441 483.023 288.186 516.145C287.916 551.376 296.585 580.521 314.8 602.949L314.816 602.968L314.831 602.986C332.927 624.934 357.332 641.984 387.77 654.27L387.802 654.283L387.834 654.295C418.172 666.171 452.392 675.391 490.454 681.993C512.207 686.006 533.026 691.673 552.918 698.987L552.953 698.999L552.988 699.012C572.561 705.956 588.317 715.29 600.464 726.885L600.489 726.909L600.514 726.933C612.01 737.673 617.762 751.427 617.629 768.774C617.499 785.641 611.744 800.194 600.22 812.725C588.412 825.563 572.834 835.724 553.259 843.084C533.95 850.185 512.962 853.682 490.235 853.507C470.298 853.354 451.044 850.306 432.449 844.369C413.855 838.433 397.813 830.299 384.238 820.027C371.106 809.637 362.406 797.792 357.78 784.518L355.601 778.266L349.386 780.548L287.86 803.132L281.817 805.35L283.965 811.419C292.78 836.322 307.763 857.819 328.763 875.867L328.778 875.88L328.794 875.893C349.895 893.799 374.468 907.65 402.441 917.481Z" fill="white" stroke="white" stroke-width="13.0256"/>
<circle cx="1403.34" cy="450.327" r="42.3333" transform="rotate(0.439877 1403.34 450.327)" fill="#E30514"/>
<circle cx="1597.53" cy="422.509" r="71.641" transform="rotate(0.439877 1597.53 422.509)" fill="#E30514"/>
</svg>
