<svg width="2326" height="648" viewBox="0 0 2326 648" fill="none" xmlns="http://www.w3.org/2000/svg">
<path d="M1803.08 467.165L2063.8 0L2325.16 467.165H2205.22L2063.8 214.644L1923.02 467.165H1803.08ZM2063.8 467.165C2044.23 467.165 2027.82 450.752 2027.82 431.181C2027.82 410.979 2044.23 395.197 2063.8 395.197C2083.37 395.197 2099.79 410.979 2099.79 431.181C2099.79 450.752 2083.37 467.165 2063.8 467.165Z" fill="#214132"/>
<path d="M1593.17 317.546L1429.66 25.252H1548.98L1649.36 203.911L1749.1 25.252H1868.42L1706.17 315.652V467.165H1593.17V317.546Z" fill="#214132"/>
<path d="M903.166 25.252H1023.11L1156.32 263.885L1290.16 25.252H1410.1L1156.32 478.529L903.166 25.252Z" fill="#214132"/>
<path d="M693.444 110.173L750.643 0L1012 467.165H892.055L750.643 214.644L693.444 110.173Z" fill="#214132"/>
<path d="M311.865 25.2524H416.661V489.893L104.165 227.901V467.166H0V10.7324L311.865 280.931V25.2524Z" fill="#214132"/>
<path d="M546.086 459.604C658.195 422.327 680.63 371.758 660.743 237.598C555.268 274.579 512.984 315.856 546.086 459.604Z" fill="#C39D74"/>
<path d="M714.653 431.186C714.653 450.756 731.067 467.17 750.638 467.17C770.208 467.17 786.622 450.756 786.622 431.186C786.622 410.984 770.208 395.201 750.638 395.201C731.067 395.201 714.653 410.984 714.653 431.186Z" fill="#214132"/>
<path d="M2318.96 601.346C2318.96 604.005 2318.81 606.819 2318.5 609.785H2251.29C2251.8 618.072 2254.61 624.568 2259.73 629.274C2264.95 633.878 2271.24 636.179 2278.6 636.179C2284.64 636.179 2289.65 634.798 2293.64 632.036C2297.73 629.172 2300.6 625.387 2302.24 620.681H2317.27C2315.02 628.763 2310.52 635.361 2303.77 640.476C2297.02 645.489 2288.63 647.995 2278.6 647.995C2270.62 647.995 2263.46 646.205 2257.12 642.625C2250.88 639.044 2245.97 633.98 2242.39 627.433C2238.81 620.783 2237.02 613.11 2237.02 604.415C2237.02 595.719 2238.76 588.097 2242.24 581.55C2245.71 575.003 2250.57 569.99 2256.81 566.512C2263.16 562.931 2270.42 561.141 2278.6 561.141C2286.58 561.141 2293.64 562.88 2299.78 566.358C2305.92 569.836 2310.62 574.645 2313.9 580.783C2317.27 586.819 2318.96 593.673 2318.96 601.346ZM2304.54 598.43C2304.54 593.11 2303.36 588.558 2301.01 584.773C2298.65 580.885 2295.43 577.969 2291.34 576.026C2287.35 573.98 2282.9 572.957 2277.99 572.957C2270.93 572.957 2264.89 575.207 2259.88 579.709C2254.97 584.21 2252.16 590.45 2251.44 598.43H2304.54Z" fill="#214132"/>
<path d="M2117.96 604.265C2117.96 595.672 2119.7 588.152 2123.18 581.707C2126.66 575.16 2131.41 570.096 2137.45 566.515C2143.59 562.935 2150.44 561.145 2158.01 561.145C2164.56 561.145 2170.65 562.679 2176.27 565.748C2181.9 568.715 2186.2 572.654 2189.16 577.564V533.062H2203.28V646.618H2189.16V630.813C2186.4 635.825 2182.31 639.969 2176.89 643.242C2171.46 646.414 2165.12 647.999 2157.86 647.999C2150.39 647.999 2143.59 646.158 2137.45 642.475C2131.41 638.792 2126.66 633.626 2123.18 626.976C2119.7 620.327 2117.96 612.756 2117.96 604.265ZM2189.16 604.418C2189.16 598.076 2187.88 592.551 2185.33 587.845C2182.77 583.14 2179.29 579.559 2174.89 577.104C2170.59 574.546 2165.84 573.267 2160.62 573.267C2155.4 573.267 2150.65 574.495 2146.35 576.95C2142.05 579.406 2138.63 582.986 2136.07 587.692C2133.51 592.398 2132.23 597.922 2132.23 604.265C2132.23 610.71 2133.51 616.337 2136.07 621.145C2138.63 625.851 2142.05 629.483 2146.35 632.04C2150.65 634.495 2155.4 635.723 2160.62 635.723C2165.84 635.723 2170.59 634.495 2174.89 632.04C2179.29 629.483 2182.77 625.851 2185.33 621.145C2187.88 616.337 2189.16 610.761 2189.16 604.418Z" fill="#214132"/>
<path d="M1998.91 604.261C1998.91 595.668 2000.65 588.148 2004.13 581.703C2007.61 575.156 2012.36 570.092 2018.4 566.512C2024.54 562.931 2031.34 561.141 2038.81 561.141C2046.17 561.141 2052.57 562.726 2057.99 565.898C2063.41 569.069 2067.45 573.059 2070.11 577.867V562.522H2084.23V646.614H2070.11V630.962C2067.35 635.873 2063.21 639.965 2057.68 643.238C2052.26 646.41 2045.92 647.995 2038.65 647.995C2031.19 647.995 2024.43 646.154 2018.4 642.471C2012.36 638.788 2007.61 633.622 2004.13 626.972C2000.65 620.323 1998.91 612.752 1998.91 604.261ZM2070.11 604.415C2070.11 598.072 2068.83 592.547 2066.28 587.842C2063.72 583.136 2060.24 579.555 2055.84 577.1C2051.54 574.542 2046.79 573.263 2041.57 573.263C2036.35 573.263 2031.6 574.491 2027.3 576.946C2023 579.402 2019.58 582.982 2017.02 587.688C2014.46 592.394 2013.18 597.918 2013.18 604.261C2013.18 610.706 2014.46 616.333 2017.02 621.141C2019.58 625.847 2023 629.479 2027.3 632.036C2031.6 634.492 2036.35 635.719 2041.57 635.719C2046.79 635.719 2051.54 634.492 2055.84 632.036C2060.24 629.479 2063.72 625.847 2066.28 621.141C2068.83 616.333 2070.11 610.757 2070.11 604.415Z" fill="#214132"/>
<path d="M1945.51 576.186C1947.97 571.378 1951.44 567.644 1955.95 564.984C1960.55 562.324 1966.13 560.994 1972.67 560.994V575.419H1968.99C1953.34 575.419 1945.51 583.91 1945.51 600.892V646.621H1931.55V562.529H1945.51V576.186Z" fill="#214132"/>
<path d="M1899.01 539.664V551.02H1869.85V646.621H1855.89V551.02H1826.58V539.664H1899.01Z" fill="#214132"/>
<path d="M1737.77 533.062V646.618H1723.81V533.062H1737.77Z" fill="#214132"/>
<path d="M1599.55 604.261C1599.55 595.668 1601.29 588.148 1604.77 581.703C1608.24 575.156 1613 570.092 1619.04 566.512C1625.18 562.931 1631.98 561.141 1639.45 561.141C1646.81 561.141 1653.21 562.726 1658.63 565.898C1664.05 569.069 1668.09 573.059 1670.75 577.867V562.522H1684.87V646.614H1670.75V630.962C1667.99 635.873 1663.85 639.965 1658.32 643.238C1652.9 646.41 1646.56 647.995 1639.29 647.995C1631.83 647.995 1625.07 646.154 1619.04 642.471C1613 638.788 1608.24 633.622 1604.77 626.972C1601.29 620.323 1599.55 612.752 1599.55 604.261ZM1670.75 604.415C1670.75 598.072 1669.47 592.547 1666.91 587.842C1664.36 583.136 1660.88 579.555 1656.48 577.1C1652.18 574.542 1647.43 573.263 1642.21 573.263C1636.99 573.263 1632.23 574.491 1627.94 576.946C1623.64 579.402 1620.21 582.982 1617.66 587.688C1615.1 592.394 1613.82 597.918 1613.82 604.261C1613.82 610.706 1615.1 616.333 1617.66 621.141C1620.21 625.847 1623.64 629.479 1627.94 632.036C1632.23 634.492 1636.99 635.719 1642.21 635.719C1647.43 635.719 1652.18 634.492 1656.48 632.036C1660.88 629.479 1664.36 625.847 1666.91 621.141C1669.47 616.333 1670.75 610.757 1670.75 604.415Z" fill="#214132"/>
<path d="M1499.68 578.178C1502.55 573.165 1506.74 569.073 1512.26 565.902C1517.79 562.73 1524.08 561.145 1531.14 561.145C1538.71 561.145 1545.51 562.935 1551.55 566.515C1557.58 570.096 1562.34 575.16 1565.82 581.707C1569.3 588.152 1571.04 595.672 1571.04 604.265C1571.04 612.756 1569.3 620.327 1565.82 626.976C1562.34 633.626 1557.53 638.792 1551.4 642.475C1545.36 646.158 1538.61 647.999 1531.14 647.999C1523.88 647.999 1517.48 646.414 1511.96 643.242C1506.54 640.071 1502.44 636.03 1499.68 631.119V646.618H1485.72V533.062H1499.68V578.178ZM1556.77 604.265C1556.77 597.922 1555.49 592.398 1552.93 587.692C1550.37 582.986 1546.89 579.406 1542.5 576.95C1538.2 574.495 1533.44 573.267 1528.22 573.267C1523.11 573.267 1518.35 574.546 1513.95 577.104C1509.66 579.559 1506.18 583.191 1503.52 587.999C1500.96 592.705 1499.68 598.178 1499.68 604.418C1499.68 610.761 1500.96 616.337 1503.52 621.145C1506.18 625.851 1509.66 629.483 1513.95 632.04C1518.35 634.495 1523.11 635.723 1528.22 635.723C1533.44 635.723 1538.2 634.495 1542.5 632.04C1546.89 629.483 1550.37 625.851 1552.93 621.145C1555.49 616.337 1556.77 610.71 1556.77 604.265Z" fill="#214132"/>
<path d="M1408.9 647.995C1401.02 647.995 1393.86 646.205 1387.41 642.625C1381.07 639.044 1376.06 633.98 1372.37 627.433C1368.79 620.783 1367 613.11 1367 604.415C1367 595.821 1368.84 588.251 1372.53 581.703C1376.31 575.054 1381.43 569.99 1387.87 566.512C1394.32 562.931 1401.53 561.141 1409.51 561.141C1417.49 561.141 1424.7 562.931 1431.15 566.512C1437.59 569.99 1442.66 575.003 1446.34 581.55C1450.12 588.097 1452.02 595.719 1452.02 604.415C1452.02 613.11 1450.07 620.783 1446.18 627.433C1442.4 633.98 1437.23 639.044 1430.69 642.625C1424.14 646.205 1416.87 647.995 1408.9 647.995ZM1408.9 635.719C1413.91 635.719 1418.61 634.543 1423.01 632.19C1427.41 629.837 1430.94 626.307 1433.6 621.601C1436.36 616.895 1437.74 611.167 1437.74 604.415C1437.74 597.663 1436.41 591.934 1433.75 587.228C1431.09 582.522 1427.62 579.044 1423.32 576.793C1419.02 574.44 1414.37 573.263 1409.36 573.263C1404.24 573.263 1399.53 574.44 1395.24 576.793C1391.04 579.044 1387.67 582.522 1385.11 587.228C1382.55 591.934 1381.27 597.663 1381.27 604.415C1381.27 611.269 1382.5 617.049 1384.96 621.755C1387.51 626.461 1390.89 629.99 1395.08 632.343C1399.28 634.594 1403.88 635.719 1408.9 635.719Z" fill="#214132"/>
<path d="M1333.06 533.062V646.618H1319.1V533.062H1333.06Z" fill="#214132"/>
<path d="M1265.35 570.659C1262.39 564.418 1258.09 559.61 1252.46 556.234C1246.84 552.756 1240.29 551.017 1232.82 551.017C1225.35 551.017 1218.6 552.756 1212.56 556.234C1206.63 559.61 1201.93 564.521 1198.45 570.966C1195.07 577.309 1193.38 584.674 1193.38 593.063C1193.38 601.452 1195.07 608.818 1198.45 615.16C1201.93 621.503 1206.63 626.414 1212.56 629.892C1218.6 633.268 1225.35 634.956 1232.82 634.956C1243.26 634.956 1251.85 631.836 1258.6 625.595C1265.35 619.355 1269.29 610.915 1270.42 600.275H1227.76V588.92H1285.3V599.662C1284.48 608.46 1281.72 616.542 1277.02 623.907C1272.31 631.171 1266.12 636.951 1258.45 641.248C1250.77 645.442 1242.23 647.539 1232.82 647.539C1222.9 647.539 1213.84 645.237 1205.66 640.634C1197.48 635.928 1190.98 629.432 1186.17 621.145C1181.46 612.859 1179.11 603.498 1179.11 593.063C1179.11 582.628 1181.46 573.268 1186.17 564.981C1190.98 556.592 1197.48 550.096 1205.66 545.492C1213.84 540.787 1222.9 538.434 1232.82 538.434C1244.18 538.434 1254.2 541.247 1262.9 546.874C1271.7 552.5 1278.09 560.429 1282.08 570.659H1265.35Z" fill="#214132"/>
</svg>
