<svg width="1379" height="655" viewBox="0 0 1379 655" fill="none" xmlns="http://www.w3.org/2000/svg">
<g filter="url(#filter0_d_101_26)">
<path d="M1175.37 546.025C1175.37 535.058 1177.59 525.462 1182.03 517.237C1186.47 508.881 1192.54 502.418 1200.24 497.848C1208.07 493.278 1216.82 490.994 1226.48 490.994C1234.84 490.994 1242.61 492.952 1249.79 496.869C1256.97 500.655 1262.45 505.682 1266.24 511.949V455.154H1284.26V600.078H1266.24V579.906C1262.72 586.304 1257.49 591.592 1250.57 595.77C1243.65 599.817 1235.56 601.841 1226.29 601.841C1216.76 601.841 1208.07 599.491 1200.24 594.79C1192.54 590.09 1186.47 583.497 1182.03 575.01C1177.59 566.524 1175.37 556.862 1175.37 546.025ZM1266.24 546.221C1266.24 538.126 1264.61 531.076 1261.34 525.07C1258.08 519.064 1253.64 514.495 1248.03 511.361C1242.54 508.097 1236.47 506.465 1229.81 506.465C1223.15 506.465 1217.08 508.032 1211.6 511.165C1206.12 514.299 1201.74 518.869 1198.48 524.874C1195.21 530.88 1193.58 537.931 1193.58 546.025C1193.58 554.251 1195.21 561.432 1198.48 567.568C1201.74 573.574 1206.12 578.209 1211.6 581.473C1217.08 584.607 1223.15 586.173 1229.81 586.173C1236.47 586.173 1242.54 584.607 1248.03 581.473C1253.64 578.209 1258.08 573.574 1261.34 567.568C1264.61 561.432 1266.24 554.316 1266.24 546.221Z" fill="#101010"/>
</g>
<g filter="url(#filter1_d_101_26)">
<path d="M1076.14 601.841C1066.09 601.841 1056.95 599.556 1048.72 594.987C1040.63 590.417 1034.23 583.954 1029.53 575.598C1024.96 567.112 1022.68 557.32 1022.68 546.222C1022.68 535.255 1025.03 525.593 1029.73 517.237C1034.56 508.751 1041.09 502.288 1049.31 497.849C1057.54 493.279 1066.74 490.994 1076.93 490.994C1087.11 490.994 1096.31 493.279 1104.54 497.849C1112.76 502.288 1119.23 508.685 1123.93 517.041C1128.76 525.397 1131.17 535.124 1131.17 546.222C1131.17 557.32 1128.69 567.112 1123.73 575.598C1118.9 583.954 1112.31 590.417 1103.95 594.987C1095.6 599.556 1086.33 601.841 1076.14 601.841ZM1076.14 586.174C1082.54 586.174 1088.55 584.672 1094.16 581.67C1099.77 578.667 1104.28 574.162 1107.67 568.156C1111.2 562.15 1112.96 554.839 1112.96 546.222C1112.96 537.605 1111.26 530.293 1107.87 524.287C1104.47 518.282 1100.03 513.843 1094.55 510.97C1089.07 507.967 1083.13 506.466 1076.73 506.466C1070.2 506.466 1064.2 507.967 1058.71 510.97C1053.36 513.843 1049.05 518.282 1045.79 524.287C1042.52 530.293 1040.89 537.605 1040.89 546.222C1040.89 554.97 1042.46 562.346 1045.59 568.352C1048.85 574.358 1053.16 578.862 1058.52 581.865C1063.87 584.738 1069.74 586.174 1076.14 586.174Z" fill="#101010"/>
</g>
<g filter="url(#filter2_d_101_26)">
<path d="M929.203 490.801C937.559 490.801 945.001 492.563 951.529 496.089C958.057 499.483 963.215 504.64 967.001 511.56C970.787 518.48 972.68 526.901 972.68 536.824V600.081H955.054V539.37C955.054 528.664 952.378 520.504 947.025 514.889C941.802 509.145 934.687 506.272 925.678 506.272C916.408 506.272 909.031 509.275 903.548 515.281C898.064 521.156 895.322 529.708 895.322 540.937V600.081H877.696V539.37C877.696 528.664 875.02 520.504 869.667 514.889C864.444 509.145 857.329 506.272 848.32 506.272C839.05 506.272 831.673 509.275 826.19 515.281C820.706 521.156 817.964 529.708 817.964 540.937V600.081H800.143V492.759H817.964V508.231C821.489 502.617 826.19 498.308 832.065 495.305C838.071 492.302 844.664 490.801 851.845 490.801C860.854 490.801 868.818 492.824 875.738 496.872C882.658 500.919 887.815 506.86 891.21 514.694C894.213 507.121 899.174 501.246 906.094 497.068C913.014 492.89 920.717 490.801 929.203 490.801Z" fill="#101010"/>
</g>
<g filter="url(#filter3_d_101_26)">
<path d="M749.204 542.305C749.204 545.7 749.008 549.29 748.617 553.076H662.837C663.49 563.652 667.081 571.943 673.609 577.948C680.267 583.824 688.297 586.761 697.697 586.761C705.401 586.761 711.798 584.999 716.89 581.474C722.113 577.818 725.768 572.987 727.857 566.981H747.05C744.178 577.296 738.433 585.717 729.816 592.245C721.199 598.643 710.493 601.841 697.697 601.841C687.514 601.841 678.374 599.556 670.279 594.987C662.315 590.417 656.048 583.954 651.479 575.598C646.909 567.112 644.624 557.32 644.624 546.222C644.624 535.124 646.844 525.397 651.283 517.041C655.722 508.685 661.923 502.288 669.888 497.849C677.983 493.279 687.253 490.994 697.697 490.994C707.881 490.994 716.89 493.214 724.724 497.653C732.558 502.092 738.563 508.228 742.741 516.062C747.05 523.765 749.204 532.513 749.204 542.305ZM730.795 538.584C730.795 531.795 729.293 525.985 726.291 521.154C723.288 516.193 719.175 512.472 713.952 509.991C708.861 507.38 703.181 506.074 696.914 506.074C687.905 506.074 680.202 508.946 673.805 514.691C667.538 520.436 663.947 528.4 663.033 538.584H730.795Z" fill="#101010"/>
</g>
<g filter="url(#filter4_d_101_26)">
<path d="M498.249 546.222C498.249 535.124 500.469 525.463 504.908 517.237C509.347 508.881 515.483 502.418 523.317 497.849C531.281 493.279 540.355 490.994 550.539 490.994C563.726 490.994 574.563 494.193 583.049 500.59C591.666 506.988 597.346 515.866 600.087 527.225H580.895C579.067 520.697 575.476 515.54 570.123 511.754C564.901 507.967 558.373 506.074 550.539 506.074C540.355 506.074 532.13 509.599 525.863 516.65C519.596 523.569 516.462 533.427 516.462 546.222C516.462 559.148 519.596 569.136 525.863 576.186C532.13 583.236 540.355 586.761 550.539 586.761C558.373 586.761 564.901 584.934 570.123 581.278C575.346 577.622 578.936 572.4 580.895 565.61H600.087C597.215 576.578 591.47 585.391 582.853 592.049C574.236 598.577 563.465 601.841 550.539 601.841C540.355 601.841 531.281 599.556 523.317 594.987C515.483 590.417 509.347 583.954 504.908 575.598C500.469 567.242 498.249 557.45 498.249 546.222Z" fill="#101010"/>
</g>
<g filter="url(#filter5_d_101_26)">
<path d="M338.48 546.026C338.48 535.059 340.7 525.463 345.139 517.237C349.578 508.881 355.649 502.418 363.353 497.849C371.186 493.279 379.869 490.994 389.4 490.994C398.8 490.994 406.96 493.018 413.88 497.065C420.8 501.113 425.957 506.205 429.352 512.341V492.757H447.369V600.079H429.352V580.103C425.827 586.37 420.539 591.592 413.488 595.77C406.569 599.818 398.474 601.841 389.204 601.841C379.673 601.841 371.056 599.491 363.353 594.791C355.649 590.091 349.578 583.497 345.139 575.011C340.7 566.524 338.48 556.863 338.48 546.026ZM429.352 546.222C429.352 538.127 427.72 531.077 424.456 525.071C421.192 519.065 416.752 514.495 411.138 511.362C405.655 508.098 399.584 506.466 392.925 506.466C386.266 506.466 380.195 508.033 374.711 511.166C369.228 514.299 364.854 518.869 361.59 524.875C358.326 530.881 356.694 537.931 356.694 546.026C356.694 554.251 358.326 561.432 361.59 567.569C364.854 573.575 369.228 578.21 374.711 581.474C380.195 584.607 386.266 586.174 392.925 586.174C399.584 586.174 405.655 584.607 411.138 581.474C416.752 578.21 421.192 573.575 424.456 567.569C427.72 561.432 429.352 554.317 429.352 546.222Z" fill="#101010"/>
</g>
<g filter="url(#filter6_d_101_26)">
<path d="M203.197 512.537C206.722 506.4 211.944 501.309 218.864 497.261C225.915 493.083 234.075 490.994 243.345 490.994C252.876 490.994 261.493 493.279 269.196 497.849C277.03 502.418 283.166 508.881 287.605 517.237C292.044 525.463 294.264 535.059 294.264 546.026C294.264 556.863 292.044 566.524 287.605 575.011C283.166 583.497 277.03 590.091 269.196 594.791C261.493 599.491 252.876 601.841 243.345 601.841C234.205 601.841 226.11 599.818 219.06 595.77C212.14 591.592 206.852 586.435 203.197 580.299V650.998H185.375V492.757H203.197V512.537ZM276.05 546.026C276.05 537.931 274.418 530.881 271.154 524.875C267.89 518.869 263.451 514.299 257.837 511.166C252.353 508.032 246.282 506.466 239.624 506.466C233.095 506.466 227.024 508.098 221.41 511.362C215.927 514.495 211.487 519.13 208.093 525.267C204.829 531.273 203.197 538.258 203.197 546.222C203.197 554.317 204.829 561.432 208.093 567.569C211.487 573.575 215.927 578.21 221.41 581.474C227.024 584.607 233.095 586.174 239.624 586.174C246.282 586.174 252.353 584.607 257.837 581.474C263.451 578.21 267.89 573.575 271.154 567.569C274.418 561.432 276.05 554.251 276.05 546.026Z" fill="#101010"/>
</g>
<g filter="url(#filter7_d_101_26)">
<path d="M86.2958 601.451C77.2871 601.451 69.1922 599.884 62.0113 596.75C54.9609 593.486 49.4121 589.047 45.3646 583.433C41.3172 577.688 39.2282 571.095 39.0977 563.653H58.0944C58.7472 570.05 61.3585 575.469 65.9282 579.908C70.6284 584.216 77.4176 586.371 86.2958 586.371C94.7824 586.371 101.441 584.282 106.272 580.104C111.233 575.795 113.714 570.312 113.714 563.653C113.714 558.43 112.278 554.187 109.405 550.923C106.533 547.659 102.943 545.178 98.634 543.481C94.3254 541.784 88.5154 539.956 81.2039 537.997C72.1951 535.647 64.9489 533.297 59.4653 530.947C54.1123 528.597 49.4773 524.941 45.5605 519.98C41.7742 514.888 39.881 508.099 39.881 499.612C39.881 492.17 41.7742 485.577 45.5605 479.832C49.3468 474.087 54.6345 469.648 61.4238 466.515C68.3436 463.381 76.2426 461.814 85.1208 461.814C97.9159 461.814 108.361 465.013 116.456 471.411C124.681 477.808 129.316 486.295 130.361 496.87H110.776C110.123 491.648 107.382 487.078 102.551 483.161C97.72 479.114 91.3225 477.09 83.3582 477.09C75.9162 477.09 69.845 479.049 65.1448 482.965C60.4446 486.752 58.0944 492.105 58.0944 499.025C58.0944 503.986 59.4653 508.033 62.2071 511.167C65.0795 514.3 68.5394 516.716 72.5868 518.413C76.7648 519.98 82.5748 521.808 90.0169 523.897C99.0256 526.377 106.272 528.858 111.755 531.339C117.239 533.689 121.939 537.41 125.856 542.502C129.773 547.463 131.731 554.252 131.731 562.869C131.731 569.528 129.969 575.795 126.444 581.67C122.919 587.546 117.696 592.311 110.776 595.967C103.856 599.623 95.6963 601.451 86.2958 601.451Z" fill="#101010"/>
</g>
<g filter="url(#filter8_d_101_26)">
<path fill-rule="evenodd" clip-rule="evenodd" d="M3 126.586C3 58.3316 58.3314 3 126.586 3H534.328C613.479 3 677.644 67.1647 677.644 146.316H627.765C627.765 94.7117 585.932 52.8784 534.328 52.8784H126.586C85.8785 52.8784 52.8784 85.8785 52.8784 126.586C52.8784 167.294 85.8786 200.294 126.586 200.294H563.922C626.729 200.294 677.644 251.209 677.644 314.016C677.644 376.823 626.729 427.738 563.922 427.738H27.9392V377.859H563.922C599.182 377.859 627.765 349.276 627.765 314.016C627.765 278.756 599.182 250.173 563.922 250.173H126.586C58.3315 250.173 3 194.841 3 126.586Z" fill="#692E04"/>
</g>
<g filter="url(#filter9_d_101_26)">
<rect x="236.191" y="111.238" width="186.041" height="38.8743" rx="5.71245" fill="#101010"/>
</g>
<g filter="url(#filter10_d_101_26)">
<rect x="236.191" y="302.834" width="186.041" height="38.8743" rx="5.71245" fill="#101010"/>
</g>
<g filter="url(#filter11_d_101_26)">
<path fill-rule="evenodd" clip-rule="evenodd" d="M825.944 52.8784C812.17 52.8784 801.004 64.044 801.004 77.8176V402.027H751.126V77.8176C751.126 36.497 784.623 3 825.944 3H1299.79C1341.11 3 1374.61 36.497 1374.61 77.8176V601.541H1324.73V77.8176C1324.73 64.044 1313.56 52.8784 1299.79 52.8784H1087.81V402.027H1037.93V52.8784H825.944Z" fill="#692E04"/>
</g>
<g filter="url(#filter12_d_101_26)">
<rect x="954.659" y="252.953" width="101.6" height="16.9334" rx="5.71245" transform="rotate(-90 954.659 252.953)" fill="#101010"/>
</g>
<g filter="url(#filter13_d_101_26)">
<rect x="1157.86" y="252.953" width="101.6" height="16.9334" rx="5.71245" transform="rotate(-90 1157.86 252.953)" fill="#101010"/>
</g>
<defs>
<filter id="filter0_d_101_26" x="1173.25" y="453.039" width="114.813" height="152.61" filterUnits="userSpaceOnUse" color-interpolation-filters="sRGB">
<feFlood flood-opacity="0" result="BackgroundImageFix"/>
<feColorMatrix in="SourceAlpha" type="matrix" values="0 0 0 0 0 0 0 0 0 0 0 0 0 0 0 0 0 0 127 0" result="hardAlpha"/>
<feOffset dx="0.846288" dy="0.846288"/>
<feGaussianBlur stdDeviation="1.481"/>
<feComposite in2="hardAlpha" operator="out"/>
<feColorMatrix type="matrix" values="0 0 0 0 0 0 0 0 0 0 0 0 0 0 0 0 0 0 0.25 0"/>
<feBlend mode="normal" in2="BackgroundImageFix" result="effect1_dropShadow_101_26"/>
<feBlend mode="normal" in="SourceGraphic" in2="effect1_dropShadow_101_26" result="shape"/>
</filter>
<filter id="filter1_d_101_26" x="1020.56" y="488.878" width="114.421" height="116.772" filterUnits="userSpaceOnUse" color-interpolation-filters="sRGB">
<feFlood flood-opacity="0" result="BackgroundImageFix"/>
<feColorMatrix in="SourceAlpha" type="matrix" values="0 0 0 0 0 0 0 0 0 0 0 0 0 0 0 0 0 0 127 0" result="hardAlpha"/>
<feOffset dx="0.846288" dy="0.846288"/>
<feGaussianBlur stdDeviation="1.481"/>
<feComposite in2="hardAlpha" operator="out"/>
<feColorMatrix type="matrix" values="0 0 0 0 0 0 0 0 0 0 0 0 0 0 0 0 0 0 0.25 0"/>
<feBlend mode="normal" in2="BackgroundImageFix" result="effect1_dropShadow_101_26"/>
<feBlend mode="normal" in="SourceGraphic" in2="effect1_dropShadow_101_26" result="shape"/>
</filter>
<filter id="filter2_d_101_26" x="798.027" y="488.685" width="178.462" height="115.205" filterUnits="userSpaceOnUse" color-interpolation-filters="sRGB">
<feFlood flood-opacity="0" result="BackgroundImageFix"/>
<feColorMatrix in="SourceAlpha" type="matrix" values="0 0 0 0 0 0 0 0 0 0 0 0 0 0 0 0 0 0 127 0" result="hardAlpha"/>
<feOffset dx="0.846288" dy="0.846288"/>
<feGaussianBlur stdDeviation="1.481"/>
<feComposite in2="hardAlpha" operator="out"/>
<feColorMatrix type="matrix" values="0 0 0 0 0 0 0 0 0 0 0 0 0 0 0 0 0 0 0.25 0"/>
<feBlend mode="normal" in2="BackgroundImageFix" result="effect1_dropShadow_101_26"/>
<feBlend mode="normal" in="SourceGraphic" in2="effect1_dropShadow_101_26" result="shape"/>
</filter>
<filter id="filter3_d_101_26" x="642.508" y="488.878" width="110.504" height="116.772" filterUnits="userSpaceOnUse" color-interpolation-filters="sRGB">
<feFlood flood-opacity="0" result="BackgroundImageFix"/>
<feColorMatrix in="SourceAlpha" type="matrix" values="0 0 0 0 0 0 0 0 0 0 0 0 0 0 0 0 0 0 127 0" result="hardAlpha"/>
<feOffset dx="0.846288" dy="0.846288"/>
<feGaussianBlur stdDeviation="1.481"/>
<feComposite in2="hardAlpha" operator="out"/>
<feColorMatrix type="matrix" values="0 0 0 0 0 0 0 0 0 0 0 0 0 0 0 0 0 0 0.25 0"/>
<feBlend mode="normal" in2="BackgroundImageFix" result="effect1_dropShadow_101_26"/>
<feBlend mode="normal" in="SourceGraphic" in2="effect1_dropShadow_101_26" result="shape"/>
</filter>
<filter id="filter4_d_101_26" x="496.133" y="488.878" width="107.762" height="116.772" filterUnits="userSpaceOnUse" color-interpolation-filters="sRGB">
<feFlood flood-opacity="0" result="BackgroundImageFix"/>
<feColorMatrix in="SourceAlpha" type="matrix" values="0 0 0 0 0 0 0 0 0 0 0 0 0 0 0 0 0 0 127 0" result="hardAlpha"/>
<feOffset dx="0.846288" dy="0.846288"/>
<feGaussianBlur stdDeviation="1.481"/>
<feComposite in2="hardAlpha" operator="out"/>
<feColorMatrix type="matrix" values="0 0 0 0 0 0 0 0 0 0 0 0 0 0 0 0 0 0 0.25 0"/>
<feBlend mode="normal" in2="BackgroundImageFix" result="effect1_dropShadow_101_26"/>
<feBlend mode="normal" in="SourceGraphic" in2="effect1_dropShadow_101_26" result="shape"/>
</filter>
<filter id="filter5_d_101_26" x="336.365" y="488.878" width="114.813" height="116.772" filterUnits="userSpaceOnUse" color-interpolation-filters="sRGB">
<feFlood flood-opacity="0" result="BackgroundImageFix"/>
<feColorMatrix in="SourceAlpha" type="matrix" values="0 0 0 0 0 0 0 0 0 0 0 0 0 0 0 0 0 0 127 0" result="hardAlpha"/>
<feOffset dx="0.846288" dy="0.846288"/>
<feGaussianBlur stdDeviation="1.481"/>
<feComposite in2="hardAlpha" operator="out"/>
<feColorMatrix type="matrix" values="0 0 0 0 0 0 0 0 0 0 0 0 0 0 0 0 0 0 0.25 0"/>
<feBlend mode="normal" in2="BackgroundImageFix" result="effect1_dropShadow_101_26"/>
<feBlend mode="normal" in="SourceGraphic" in2="effect1_dropShadow_101_26" result="shape"/>
</filter>
<filter id="filter6_d_101_26" x="183.259" y="488.878" width="114.813" height="165.928" filterUnits="userSpaceOnUse" color-interpolation-filters="sRGB">
<feFlood flood-opacity="0" result="BackgroundImageFix"/>
<feColorMatrix in="SourceAlpha" type="matrix" values="0 0 0 0 0 0 0 0 0 0 0 0 0 0 0 0 0 0 127 0" result="hardAlpha"/>
<feOffset dx="0.846288" dy="0.846288"/>
<feGaussianBlur stdDeviation="1.481"/>
<feComposite in2="hardAlpha" operator="out"/>
<feColorMatrix type="matrix" values="0 0 0 0 0 0 0 0 0 0 0 0 0 0 0 0 0 0 0.25 0"/>
<feBlend mode="normal" in2="BackgroundImageFix" result="effect1_dropShadow_101_26"/>
<feBlend mode="normal" in="SourceGraphic" in2="effect1_dropShadow_101_26" result="shape"/>
</filter>
<filter id="filter7_d_101_26" x="36.9819" y="459.699" width="98.5578" height="145.561" filterUnits="userSpaceOnUse" color-interpolation-filters="sRGB">
<feFlood flood-opacity="0" result="BackgroundImageFix"/>
<feColorMatrix in="SourceAlpha" type="matrix" values="0 0 0 0 0 0 0 0 0 0 0 0 0 0 0 0 0 0 127 0" result="hardAlpha"/>
<feOffset dx="0.846288" dy="0.846288"/>
<feGaussianBlur stdDeviation="1.481"/>
<feComposite in2="hardAlpha" operator="out"/>
<feColorMatrix type="matrix" values="0 0 0 0 0 0 0 0 0 0 0 0 0 0 0 0 0 0 0.25 0"/>
<feBlend mode="normal" in2="BackgroundImageFix" result="effect1_dropShadow_101_26"/>
<feBlend mode="normal" in="SourceGraphic" in2="effect1_dropShadow_101_26" result="shape"/>
</filter>
<filter id="filter8_d_101_26" x="0.884279" y="0.884279" width="680.568" height="430.662" filterUnits="userSpaceOnUse" color-interpolation-filters="sRGB">
<feFlood flood-opacity="0" result="BackgroundImageFix"/>
<feColorMatrix in="SourceAlpha" type="matrix" values="0 0 0 0 0 0 0 0 0 0 0 0 0 0 0 0 0 0 127 0" result="hardAlpha"/>
<feOffset dx="0.846288" dy="0.846288"/>
<feGaussianBlur stdDeviation="1.481"/>
<feComposite in2="hardAlpha" operator="out"/>
<feColorMatrix type="matrix" values="0 0 0 0 0 0 0 0 0 0 0 0 0 0 0 0 0 0 0.25 0"/>
<feBlend mode="normal" in2="BackgroundImageFix" result="effect1_dropShadow_101_26"/>
<feBlend mode="normal" in="SourceGraphic" in2="effect1_dropShadow_101_26" result="shape"/>
</filter>
<filter id="filter9_d_101_26" x="234.076" y="109.123" width="191.965" height="44.799" filterUnits="userSpaceOnUse" color-interpolation-filters="sRGB">
<feFlood flood-opacity="0" result="BackgroundImageFix"/>
<feColorMatrix in="SourceAlpha" type="matrix" values="0 0 0 0 0 0 0 0 0 0 0 0 0 0 0 0 0 0 127 0" result="hardAlpha"/>
<feOffset dx="0.846288" dy="0.846288"/>
<feGaussianBlur stdDeviation="1.481"/>
<feComposite in2="hardAlpha" operator="out"/>
<feColorMatrix type="matrix" values="0 0 0 0 0 0 0 0 0 0 0 0 0 0 0 0 0 0 0.25 0"/>
<feBlend mode="normal" in2="BackgroundImageFix" result="effect1_dropShadow_101_26"/>
<feBlend mode="normal" in="SourceGraphic" in2="effect1_dropShadow_101_26" result="shape"/>
</filter>
<filter id="filter10_d_101_26" x="234.076" y="300.718" width="191.965" height="44.799" filterUnits="userSpaceOnUse" color-interpolation-filters="sRGB">
<feFlood flood-opacity="0" result="BackgroundImageFix"/>
<feColorMatrix in="SourceAlpha" type="matrix" values="0 0 0 0 0 0 0 0 0 0 0 0 0 0 0 0 0 0 127 0" result="hardAlpha"/>
<feOffset dx="0.846288" dy="0.846288"/>
<feGaussianBlur stdDeviation="1.481"/>
<feComposite in2="hardAlpha" operator="out"/>
<feColorMatrix type="matrix" values="0 0 0 0 0 0 0 0 0 0 0 0 0 0 0 0 0 0 0.25 0"/>
<feBlend mode="normal" in2="BackgroundImageFix" result="effect1_dropShadow_101_26"/>
<feBlend mode="normal" in="SourceGraphic" in2="effect1_dropShadow_101_26" result="shape"/>
</filter>
<filter id="filter11_d_101_26" x="749.01" y="0.884279" width="629.404" height="604.465" filterUnits="userSpaceOnUse" color-interpolation-filters="sRGB">
<feFlood flood-opacity="0" result="BackgroundImageFix"/>
<feColorMatrix in="SourceAlpha" type="matrix" values="0 0 0 0 0 0 0 0 0 0 0 0 0 0 0 0 0 0 127 0" result="hardAlpha"/>
<feOffset dx="0.846288" dy="0.846288"/>
<feGaussianBlur stdDeviation="1.481"/>
<feComposite in2="hardAlpha" operator="out"/>
<feColorMatrix type="matrix" values="0 0 0 0 0 0 0 0 0 0 0 0 0 0 0 0 0 0 0.25 0"/>
<feBlend mode="normal" in2="BackgroundImageFix" result="effect1_dropShadow_101_26"/>
<feBlend mode="normal" in="SourceGraphic" in2="effect1_dropShadow_101_26" result="shape"/>
</filter>
<filter id="filter12_d_101_26" x="952.543" y="149.238" width="22.8576" height="107.524" filterUnits="userSpaceOnUse" color-interpolation-filters="sRGB">
<feFlood flood-opacity="0" result="BackgroundImageFix"/>
<feColorMatrix in="SourceAlpha" type="matrix" values="0 0 0 0 0 0 0 0 0 0 0 0 0 0 0 0 0 0 127 0" result="hardAlpha"/>
<feOffset dx="0.846288" dy="0.846288"/>
<feGaussianBlur stdDeviation="1.481"/>
<feComposite in2="hardAlpha" operator="out"/>
<feColorMatrix type="matrix" values="0 0 0 0 0 0 0 0 0 0 0 0 0 0 0 0 0 0 0.25 0"/>
<feBlend mode="normal" in2="BackgroundImageFix" result="effect1_dropShadow_101_26"/>
<feBlend mode="normal" in="SourceGraphic" in2="effect1_dropShadow_101_26" result="shape"/>
</filter>
<filter id="filter13_d_101_26" x="1155.75" y="149.238" width="22.8576" height="107.524" filterUnits="userSpaceOnUse" color-interpolation-filters="sRGB">
<feFlood flood-opacity="0" result="BackgroundImageFix"/>
<feColorMatrix in="SourceAlpha" type="matrix" values="0 0 0 0 0 0 0 0 0 0 0 0 0 0 0 0 0 0 127 0" result="hardAlpha"/>
<feOffset dx="0.846288" dy="0.846288"/>
<feGaussianBlur stdDeviation="1.481"/>
<feComposite in2="hardAlpha" operator="out"/>
<feColorMatrix type="matrix" values="0 0 0 0 0 0 0 0 0 0 0 0 0 0 0 0 0 0 0.25 0"/>
<feBlend mode="normal" in2="BackgroundImageFix" result="effect1_dropShadow_101_26"/>
<feBlend mode="normal" in="SourceGraphic" in2="effect1_dropShadow_101_26" result="shape"/>
</filter>
</defs>
</svg>
