<svg width="2092" height="663" viewBox="0 0 2092 663" fill="none" xmlns="http://www.w3.org/2000/svg">
<circle cx="325.596" cy="325.557" r="323.086" transform="rotate(0.439877 325.596 325.557)" fill="#E30514"/>
<path d="M2010.96 483.11C2000.23 482.63 1989.77 480.561 1979.59 476.904C1969.55 473.115 1960.7 468.077 1953.06 461.788C1945.56 455.368 1940.11 448.036 1936.73 439.792L1965.45 427.685C1967.41 432.207 1970.95 436.476 1976.09 440.492C1981.23 444.508 1987.17 447.734 1993.91 450.172C2000.65 452.61 2007.47 453.855 2014.36 453.908C2021.65 453.964 2028.49 452.89 2034.87 450.685C2041.25 448.481 2046.44 445.207 2050.45 440.864C2054.6 436.389 2056.69 431.036 2056.74 424.807C2056.79 418.18 2054.58 412.993 2050.1 409.247C2045.75 405.37 2040.21 402.345 2033.47 400.172C2026.86 397.868 2020.11 395.696 2013.24 393.654C1999.61 390.103 1987.45 385.901 1976.75 381.047C1966.05 376.06 1957.61 369.832 1951.44 362.362C1945.4 354.76 1942.43 345.127 1942.52 333.463C1942.61 321.136 1946.07 310.493 1952.9 301.532C1959.86 292.571 1968.93 285.682 1980.1 280.863C1991.27 276.045 2003.22 273.684 2015.95 273.782C2031.98 273.905 2046.6 277.464 2059.8 284.458C2073.01 291.452 2082.81 300.872 2089.21 312.718L2062.25 328.219C2060.04 323.43 2056.62 319.228 2052.01 315.614C2047.4 311.867 2042.12 308.91 2036.17 306.744C2030.22 304.577 2024.14 303.404 2017.91 303.224C2010.22 302.899 2002.99 303.838 1996.21 306.039C1989.57 308.242 1984.17 311.647 1980.03 316.254C1976.02 320.73 1973.99 326.348 1973.94 333.108C1973.88 339.735 1975.97 344.788 1980.18 348.267C1984.53 351.746 1990.14 354.573 1997.02 356.747C2004.03 358.789 2011.63 361.167 2019.83 363.881C2031.86 367.817 2043.09 372.344 2053.52 377.461C2063.96 382.578 2072.32 388.939 2078.63 396.542C2085.07 404.147 2088.17 413.516 2087.96 424.649C2087.86 436.843 2084.14 447.485 2076.78 456.574C2069.42 465.531 2059.89 472.351 2048.19 477.033C2036.62 481.716 2024.21 483.742 2010.96 483.11Z" fill="#939598"/>
<path d="M1911.54 354.897L1910.59 478.561L1877.19 478.304L1878.08 361.997C1878.16 351.923 1875.78 342.759 1870.94 334.504C1866.09 326.248 1859.58 319.703 1851.4 314.868C1843.22 309.901 1834.1 307.379 1824.02 307.302C1814.08 307.225 1804.92 309.607 1796.53 314.447C1788.28 319.156 1781.66 325.6 1776.7 333.78C1771.73 341.96 1769.21 351.087 1769.13 361.16L1768.24 477.468L1734.84 477.211L1736.36 278.395L1769.76 278.651L1769.57 303.503C1776.67 294.279 1785.61 286.991 1796.38 281.639C1807.16 276.155 1818.85 273.461 1831.44 273.558C1846.28 273.672 1859.78 277.42 1871.91 284.804C1884.19 292.056 1893.85 301.807 1900.92 314.056C1908.11 326.306 1911.65 339.919 1911.54 354.897Z" fill="#939598"/>
<path d="M1602.88 481.37C1584.59 481.23 1567.92 476.396 1552.89 466.87C1537.98 457.344 1526.08 444.66 1517.19 428.818C1508.43 412.845 1504.13 395.249 1504.27 376.03C1504.39 361.45 1507.07 347.884 1512.34 335.332C1517.61 322.647 1524.78 311.568 1533.87 302.094C1543.09 292.489 1553.75 285.015 1565.85 279.673C1577.96 274.332 1590.84 271.713 1604.49 271.818C1619.46 271.933 1633.16 275.087 1645.57 281.279C1658.12 287.341 1668.79 295.773 1677.59 306.578C1686.52 317.383 1693.12 329.893 1697.38 344.109C1701.78 358.326 1703.32 373.515 1702 389.676L1539.77 388.431C1541.27 399.709 1544.91 409.811 1550.67 418.736C1556.43 427.529 1563.8 434.545 1572.78 439.783C1581.88 445.022 1592 447.751 1603.13 447.969C1615.06 448.061 1625.89 445.095 1635.61 439.072C1645.34 432.917 1653.22 424.494 1659.27 413.804L1693.2 422.018C1685.12 439.585 1673.01 453.94 1656.89 465.083C1640.76 476.094 1622.76 481.523 1602.88 481.37ZM1538.98 362.179L1668.6 363.175C1667.63 352.033 1664.13 341.866 1658.1 332.673C1652.08 323.348 1644.38 315.866 1635.01 310.227C1625.64 304.588 1615.39 301.726 1604.26 301.64C1593.12 301.555 1582.9 304.194 1573.58 309.557C1564.26 314.92 1556.51 322.217 1550.35 331.448C1544.31 340.548 1540.52 350.792 1538.98 362.179Z" fill="#939598"/>
<path d="M1436.22 474.922L1438.51 176.697L1471.91 176.954L1469.62 475.178L1436.22 474.922Z" fill="#939598"/>
<path d="M1306.21 479.093C1287.92 478.953 1271.25 474.119 1256.21 464.592C1241.31 455.067 1229.41 442.383 1220.52 426.541C1211.76 410.567 1207.45 392.971 1207.6 373.752C1207.71 359.172 1210.4 345.607 1215.67 333.055C1220.93 320.37 1228.11 309.291 1237.2 299.817C1246.42 290.211 1257.08 282.738 1269.18 277.396C1281.29 272.054 1294.16 269.436 1307.82 269.541C1322.79 269.656 1336.49 272.809 1348.9 279.002C1361.45 285.063 1372.12 293.496 1380.92 304.3C1389.85 315.105 1396.44 327.616 1400.71 341.832C1405.11 356.049 1406.65 371.238 1405.33 387.399L1243.1 386.153C1244.6 397.432 1248.23 407.534 1254 416.459C1259.76 425.252 1267.13 432.267 1276.11 437.506C1285.21 442.745 1295.33 445.474 1306.46 445.692C1318.39 445.783 1329.22 442.818 1338.94 436.795C1348.66 430.64 1356.55 422.217 1362.6 411.527L1396.53 419.74C1388.44 437.308 1376.34 451.663 1360.21 462.806C1344.09 473.817 1326.09 479.246 1306.21 479.093ZM1242.3 359.902L1371.93 360.897C1370.96 349.755 1367.46 339.588 1361.43 330.396C1355.4 321.071 1347.71 313.589 1338.34 307.95C1328.97 302.311 1318.72 299.448 1307.59 299.363C1296.45 299.278 1286.23 301.916 1276.91 307.279C1267.59 312.642 1259.84 319.94 1253.67 329.171C1247.64 338.271 1243.85 348.514 1242.3 359.902Z" fill="black"/>
<path d="M1087.13 472.241L1088.65 273.424L1122.06 273.681L1121.86 298.533C1128.96 289.309 1137.9 282.021 1148.68 276.669C1159.45 271.184 1171.14 268.49 1183.73 268.587C1191.42 268.646 1198.83 269.697 1205.98 271.74L1192.2 305.038C1186.78 303.273 1181.48 302.371 1176.31 302.331C1166.37 302.255 1157.21 304.636 1148.82 309.476C1140.57 314.185 1133.96 320.629 1128.99 328.809C1124.02 336.989 1121.5 346.116 1121.42 356.189L1120.53 472.497L1087.13 472.241Z" fill="black"/>
<path d="M872.007 395.034L872.953 271.768L906.354 272.024L905.464 387.934C905.387 398.007 907.769 407.172 912.61 415.427C917.451 423.682 923.962 430.294 932.142 435.261C940.455 440.097 949.583 442.553 959.523 442.629C969.597 442.706 978.694 440.39 986.816 435.681C995.072 430.84 1001.68 424.329 1006.65 416.149C1011.62 407.969 1014.14 398.842 1014.22 388.769L1015.11 272.859L1048.51 273.115L1047.18 471.933L1013.78 471.677L1013.77 446.426C1006.68 455.65 997.741 463.004 986.962 468.488C976.184 473.84 964.566 476.468 952.106 476.373C937.262 476.259 923.703 472.576 911.432 465.324C899.293 457.94 889.626 448.124 882.43 435.873C875.366 423.624 871.892 410.011 872.007 395.034Z" fill="black"/>
<path d="M816.788 417.674L846.487 434.007C837.377 446.529 825.834 456.515 811.859 463.963C798.017 471.412 783.01 475.075 766.84 474.95C748.549 474.81 731.884 469.976 716.846 460.45C701.941 450.924 690.043 438.24 681.151 422.398C672.392 406.425 668.087 388.829 668.235 369.61C668.347 355.03 671.035 341.464 676.301 328.912C681.568 316.227 688.745 305.148 697.831 295.674C707.051 286.069 717.712 278.595 729.816 273.253C741.919 267.912 754.797 265.293 768.449 265.398C784.619 265.522 799.568 269.415 813.294 277.075C827.153 284.737 838.541 294.965 847.456 307.758L817.51 323.634C811.208 315.765 803.699 309.676 794.984 305.367C786.268 301.059 777.338 298.869 768.192 298.799C755.866 298.704 744.64 301.932 734.516 308.482C724.525 314.9 716.572 323.521 710.657 334.345C704.741 345.169 701.734 357.009 701.636 369.866C701.537 382.723 704.362 394.608 710.11 405.521C715.992 416.303 723.879 424.98 733.77 431.551C743.793 438.123 754.902 441.456 767.096 441.549C776.905 441.625 786.134 439.442 794.784 435.002C803.434 430.561 810.768 424.785 816.788 417.674Z" fill="black"/>
<path d="M427.627 461.035L427.638 461.042C443.214 470.91 460.487 475.912 479.379 476.057C499.923 476.215 518.589 470.592 535.281 459.193L535.289 459.188L535.296 459.182C551.902 447.706 564.401 432.891 572.741 414.777L574.425 411.118L570.51 410.17L536.574 401.956L534.142 401.368L532.91 403.546C527.116 413.789 519.605 421.794 510.38 427.637C501.221 433.307 491.025 436.112 479.706 436.029C469.109 435.818 459.551 433.227 450.966 428.29C442.448 423.315 435.458 416.664 429.973 408.301C425.143 400.819 421.87 392.446 420.175 383.147L578.503 384.363L581.581 384.387L581.831 381.318C583.179 364.78 581.608 349.169 577.078 334.518C572.695 319.913 565.899 307.01 556.676 295.849C547.578 284.678 536.53 275.948 523.559 269.678C510.664 263.248 496.473 259.996 481.039 259.877C466.933 259.769 453.589 262.477 441.043 268.015C428.541 273.532 417.523 281.257 408.005 291.172L408.004 291.173C398.622 300.956 391.225 312.385 385.808 325.428C380.365 338.405 377.601 352.399 377.486 367.377C377.334 387.129 381.765 405.288 390.81 421.785L390.818 421.799L390.826 421.813C399.977 438.117 412.25 451.208 427.627 461.035ZM531.844 325.845L531.85 325.854L531.856 325.863C536.918 333.583 540.103 342.018 541.412 351.205L419.383 350.268C421.13 340.845 424.551 332.319 429.631 324.658C435.525 315.838 442.895 308.901 451.757 303.802C460.548 298.743 470.192 296.246 480.759 296.327C491.311 296.408 500.978 299.112 509.828 304.439C518.756 309.814 526.088 316.937 531.844 325.845Z" fill="white" stroke="white" stroke-width="6.62741"/>
<path d="M204.801 466.815L204.814 466.819L204.827 466.824C219.053 471.687 233.836 474.176 249.162 474.293C267.604 474.435 284.781 471.174 300.654 464.477C316.543 457.772 329.414 448.197 339.166 435.723C349.15 423.122 354.186 408.32 354.316 391.46C354.443 374.853 349.618 360.635 339.723 349.023C330.148 337.635 317.448 328.579 301.74 321.799C286.158 314.942 269.246 309.906 251.014 306.678C238.401 304.344 227.074 301.697 217.023 298.741C207.243 295.866 199.73 291.673 194.295 286.287C189.305 281.089 186.615 273.471 186.696 262.923C186.761 254.487 189.68 247.145 195.553 240.76C201.57 234.217 209.441 229.046 219.272 225.303C229.082 221.567 239.673 219.791 251.077 220.007L251.096 220.007L251.115 220.007C261.396 220.086 271.187 221.638 280.504 224.653L280.529 224.661L280.555 224.669C289.997 227.555 298.068 231.684 304.82 237.019L304.847 237.04L304.874 237.061C311.67 242.209 316.15 248.222 318.501 255.091L319.588 258.265L322.748 257.14L354.448 245.851L357.58 244.736L356.455 241.608C351.709 228.414 343.821 217.201 332.847 208.005C321.975 198.894 309.399 191.978 295.153 187.242C281.066 182.382 266.485 179.896 251.423 179.78C233.239 179.64 216.196 182.905 200.329 189.6C184.44 196.304 171.508 205.876 161.627 218.342L161.62 218.351L161.613 218.36C151.763 230.963 146.797 245.764 146.668 262.616C146.53 280.542 150.941 295.37 160.209 306.782L160.217 306.791L160.225 306.801C169.432 317.967 181.849 326.642 197.336 332.894L197.352 332.9L197.368 332.907C212.804 338.949 230.215 343.64 249.582 346.999C260.649 349.041 271.242 351.924 281.363 355.645L281.38 355.652L281.398 355.658C291.357 359.191 299.373 363.94 305.554 369.84L305.566 369.852L305.579 369.864C311.428 375.329 314.355 382.327 314.287 391.153C314.221 399.735 311.293 407.139 305.429 413.515C299.422 420.047 291.496 425.217 281.536 428.962C271.712 432.574 261.033 434.354 249.47 434.265C239.326 434.187 229.529 432.636 220.068 429.615C210.608 426.595 202.446 422.456 195.539 417.23C188.857 411.944 184.431 405.917 182.077 399.164L180.969 395.982L177.806 397.143L146.502 408.634L143.427 409.762L144.52 412.85C149.005 425.521 156.628 436.459 167.313 445.641L167.321 445.648L167.329 445.655C178.065 454.765 190.568 461.812 204.801 466.815Z" fill="white" stroke="white" stroke-width="6.62741"/>
<circle cx="714.051" cy="229.124" r="21.5391" transform="rotate(0.439877 714.051 229.124)" fill="#E30514"/>
<circle cx="812.856" cy="214.97" r="36.4507" transform="rotate(0.439877 812.856 214.97)" fill="#E30514"/>
</svg>
