<svg width="789" height="648" viewBox="0 0 789 648" fill="none" xmlns="http://www.w3.org/2000/svg">
<path d="M632.259 281.644C632.689 282.245 632.861 283.234 632.775 284.61C632.689 286.415 631.701 287.318 629.809 287.318H615.882C614.593 287.318 613.69 287.06 613.174 286.544C612.658 286.114 612.185 285.512 611.756 284.739L591.639 249.534C590.263 246.955 588.845 245.278 587.383 244.505C586.008 243.645 583.686 243.215 580.419 243.215H567.395V282.804C567.395 284.782 566.922 286.028 565.976 286.544C565.031 287.06 564.3 287.318 563.784 287.318H551.92C551.405 287.318 550.631 287.06 549.599 286.544C548.654 286.028 548.181 284.782 548.181 282.804V185.572C548.181 183.509 548.654 182.262 549.599 181.832C550.631 181.317 551.405 181.059 551.92 181.059H563.784C564.3 181.059 565.031 181.317 565.976 181.832C566.922 182.262 567.395 183.509 567.395 185.572V224.13H579.259C582.268 224.13 584.503 223.786 585.965 223.098C587.512 222.324 588.974 220.648 590.349 218.069L609.821 183.638C609.993 183.294 610.165 182.993 610.337 182.735C610.595 182.391 610.896 182.09 611.24 181.832C611.756 181.317 612.701 181.059 614.077 181.059H626.843C628.391 181.059 629.379 181.66 629.809 182.864C630.239 184.068 630.11 185.228 629.422 186.346L608.145 223.743C606.855 225.892 605.695 227.826 604.663 229.546C603.803 230.921 602.987 232.039 602.213 232.899C603.416 234.102 604.663 235.564 605.953 237.283C607.328 238.916 608.661 240.851 609.95 243.086L632.259 281.644Z" fill="#AD000C"/>
<path d="M510.953 243.086C511.469 243.86 512.372 245.364 513.662 247.599C514.951 249.749 516.456 252.285 518.175 255.208C519.894 258.045 521.657 261.054 523.462 264.235C525.353 267.33 527.073 270.296 528.62 273.133C530.254 275.884 531.543 278.248 532.489 280.225C533.521 282.116 534.036 283.32 534.036 283.836C534.036 284.782 533.822 285.598 533.392 286.286C532.962 286.974 532.188 287.318 531.07 287.318H516.885C515.854 287.318 515.037 287.146 514.435 286.802C513.833 286.372 513.275 285.684 512.759 284.739L489.418 243.473H462.208V282.804C462.208 284.008 461.908 285.082 461.306 286.028C460.79 286.888 459.887 287.318 458.598 287.318H446.863C445.573 287.318 444.628 286.888 444.026 286.028C443.424 285.082 443.123 284.008 443.123 282.804V228.772C443.123 227.568 443.381 226.537 443.897 225.677C444.499 224.817 445.487 224.388 446.863 224.388H502.958C504.936 224.388 506.483 224.087 507.601 223.485C508.804 222.797 509.707 221.894 510.309 220.777C510.91 219.659 511.297 218.37 511.469 216.908C511.727 215.447 511.856 213.899 511.856 212.266C511.856 210.632 511.727 209.085 511.469 207.623C511.297 206.162 510.91 204.872 510.309 203.755C509.707 202.637 508.804 201.777 507.601 201.176C506.483 200.488 504.936 200.144 502.958 200.144H446.863C445.487 200.144 444.499 199.714 443.897 198.854C443.381 197.995 443.123 196.963 443.123 195.759V185.572C443.123 184.368 443.381 183.337 443.897 182.477C444.499 181.531 445.487 181.059 446.863 181.059H506.311C511.211 181.059 515.252 181.875 518.433 183.509C521.614 185.142 524.107 187.377 525.912 190.214C527.804 193.051 529.136 196.361 529.91 200.144C530.684 203.927 531.07 207.967 531.07 212.266C531.07 215.876 530.77 219.444 530.168 222.969C529.652 226.408 528.62 229.546 527.073 232.383C525.611 235.134 523.591 237.498 521.012 239.475C518.433 241.367 515.08 242.57 510.953 243.086Z" fill="#AD000C"/>
<path d="M379.876 179.639C382.197 179.639 384.174 179.983 385.807 180.67C387.527 181.358 388.988 182.304 390.192 183.507C391.481 184.625 392.556 186 393.416 187.634C394.361 189.267 395.221 191.073 395.995 193.05L432.231 282.416C432.575 283.276 432.747 284.006 432.747 284.608C432.747 285.468 432.446 286.156 431.844 286.671C431.329 287.187 430.641 287.445 429.781 287.445H415.983C414.178 287.445 412.931 286.5 412.243 284.608L380.133 204.527H379.618L362.853 246.695H378.844C380.563 246.695 381.81 247.555 382.584 249.274C382.842 249.876 383.228 250.822 383.744 252.111C384.346 253.315 384.905 254.562 385.421 255.851C386.022 257.141 386.495 258.387 386.839 259.591C387.269 260.708 387.484 261.568 387.484 262.17C387.484 263.374 387.097 264.362 386.323 265.136C385.55 265.91 384.561 266.297 383.357 266.297H355.116L347.766 284.737C347.078 286.543 345.874 287.445 344.155 287.445H329.97C327.993 287.445 327.004 286.5 327.004 284.608C327.004 283.748 327.133 283.018 327.391 282.416L363.369 193.05C364.917 189.181 366.937 186 369.43 183.507C371.923 180.928 375.405 179.639 379.876 179.639Z" fill="#AD000C"/>
<path d="M283.212 181.059C290.175 181.059 295.892 182.176 300.363 184.411C304.919 186.561 308.487 189.57 311.066 193.438C313.645 197.307 315.408 201.863 316.353 207.108C317.385 212.352 317.901 218.026 317.901 224.13V244.247C317.901 250.436 317.385 256.153 316.353 261.398C315.408 266.642 313.645 271.198 311.066 275.067C308.487 278.85 304.919 281.859 300.363 284.094C295.892 286.243 290.175 287.318 283.212 287.318H239.238C238.035 287.318 236.745 287.103 235.369 286.673C234.08 286.157 232.876 285.469 231.759 284.61C230.727 283.75 229.824 282.761 229.051 281.644C228.363 280.44 228.019 279.151 228.019 277.775V189.828C228.019 187.162 229.008 185.056 230.985 183.509C233.048 181.875 235.455 181.059 238.207 181.059H283.212ZM282.825 268.232C286.522 268.232 289.402 267.673 291.465 266.556C293.614 265.438 295.205 263.891 296.236 261.913C297.354 259.85 298.042 257.486 298.3 254.821C298.643 252.156 298.815 249.276 298.815 246.181V222.195C298.815 219.1 298.643 216.22 298.3 213.555C298.042 210.89 297.354 208.569 296.236 206.592C295.205 204.614 293.614 203.067 291.465 201.949C289.402 200.746 286.522 200.144 282.825 200.144H247.104V268.232H282.825Z" fill="#AD000C"/>
<path d="M606.502 365.66C606.502 367.981 606.502 370.303 606.502 372.624C606.502 374.945 606.287 377.223 605.857 379.458C605.513 381.694 604.912 383.843 604.052 385.906C603.192 387.883 601.86 389.775 600.054 391.58C602.805 394.073 604.654 396.996 605.599 400.349C606.631 403.702 607.147 407.184 607.147 410.794C607.147 414.749 607.061 418.833 606.889 423.045C606.803 427.172 606.115 430.954 604.826 434.393C603.622 437.832 601.602 440.669 598.765 442.904C595.928 445.14 591.844 446.257 586.514 446.257H528.484C527.281 446.257 525.991 446.042 524.616 445.612C523.326 445.097 522.122 444.409 521.005 443.549C519.973 442.689 519.071 441.701 518.297 440.583C517.609 439.38 517.265 438.09 517.265 436.714V348.767C517.265 346.102 518.254 343.996 520.231 342.448C522.294 340.815 524.702 339.998 527.453 339.998H584.58C588.792 339.998 592.274 340.643 595.025 341.932C597.862 343.136 600.097 344.855 601.731 347.091C603.45 349.326 604.654 352.034 605.342 355.215C606.115 358.31 606.502 361.791 606.502 365.66ZM536.35 427.172H581.227C584.064 427.172 585.912 426.57 586.772 425.366C587.718 424.077 588.19 422.057 588.19 419.305V410.537C588.19 407.442 587.546 405.292 586.256 404.089C584.967 402.885 582.817 402.283 579.808 402.283H554.791C553.588 402.283 552.556 401.897 551.696 401.123C550.922 400.263 550.536 399.231 550.536 398.028V387.454C550.536 386.25 550.922 385.261 551.696 384.488C552.556 383.628 553.588 383.198 554.791 383.198H579.808C582.645 383.198 584.709 382.725 585.998 381.78C587.374 380.748 588.062 378.728 588.062 375.719V366.821C588.062 364.328 587.589 362.436 586.643 361.147C585.783 359.771 583.978 359.083 581.227 359.083H536.35V427.172Z" fill="#AD000C"/>
<path d="M498.221 339.998C498.737 339.998 499.468 340.256 500.414 340.772C501.359 341.288 501.832 342.534 501.832 344.511V354.57C501.832 356.547 501.359 357.794 500.414 358.31C499.468 358.825 498.737 359.083 498.221 359.083H424.072C423.556 359.083 422.826 358.868 421.88 358.439C421.02 357.923 420.59 356.676 420.59 354.699V344.64C420.59 342.577 421.02 341.288 421.88 340.772C422.826 340.256 423.556 339.998 424.072 339.998H498.221ZM439.934 415.437C439.934 419.821 441.051 422.873 443.286 424.593C445.608 426.312 448.746 427.172 452.7 427.172H498.092C499.468 427.172 500.414 427.602 500.929 428.461C501.531 429.321 501.832 430.353 501.832 431.556V441.873C501.832 443.076 501.531 444.108 500.929 444.968C500.414 445.827 499.468 446.257 498.092 446.257H452.313C446.123 446.257 440.965 445.397 436.839 443.678C432.798 441.873 429.574 439.337 427.167 436.07C424.76 432.803 423.04 428.891 422.009 424.335C421.063 419.692 420.59 414.534 420.59 408.86V391.838C420.59 390.806 420.762 389.775 421.106 388.743C421.45 387.625 422.009 386.68 422.783 385.906C423.642 385.046 424.717 384.359 426.006 383.843C427.382 383.327 429.058 383.069 431.036 383.069H497.577C498.866 383.069 499.769 383.499 500.285 384.359C500.886 385.218 501.187 386.25 501.187 387.454V397.641C501.187 398.845 500.886 399.919 500.285 400.865C499.769 401.725 498.866 402.154 497.577 402.154H439.934V415.437Z" fill="#AD000C"/>
<path d="M399.902 338.449C401.88 338.449 402.868 339.438 402.868 341.415C402.868 342.103 402.739 342.791 402.481 343.478L373.724 432.715C372.521 436.584 370.544 439.808 367.792 442.387C365.041 444.966 361.517 446.256 357.218 446.256C353.693 446.256 350.512 445.181 347.675 443.032C344.838 440.883 342.904 438.132 341.872 434.779L323.174 373.396L304.089 432.715C302.885 436.584 300.865 439.808 298.028 442.387C295.277 444.966 291.795 446.256 287.582 446.256C284.058 446.256 280.877 445.181 278.04 443.032C275.203 440.883 273.268 438.132 272.237 434.779L244.253 341.544C244.253 339.481 245.199 338.449 247.09 338.449H260.889C262.866 338.449 264.113 339.395 264.628 341.286L287.195 418.917H287.84L312.342 341.286C312.944 339.395 314.19 338.449 316.081 338.449H330.653C332.459 338.449 333.662 339.395 334.264 341.286L356.831 418.917H357.476L381.978 341.286C382.579 339.395 383.826 338.449 385.717 338.449H399.902Z" fill="#AD000C"/>
<path d="M764.661 472.879C764.661 473.333 764.791 473.689 765.049 473.947C765.341 474.206 765.664 474.336 766.02 474.336H780.584C782.073 474.336 783.303 474.627 784.273 475.21C785.277 475.76 786.07 476.504 786.652 477.443C787.235 478.381 787.639 479.465 787.866 480.695C788.125 481.893 788.254 483.123 788.254 484.385V488.657C788.254 489.919 788.109 491.133 787.817 492.298C787.558 493.463 787.121 494.482 786.507 495.356C785.892 496.23 785.083 496.926 784.079 497.443C783.108 497.961 781.911 498.22 780.487 498.22H758.593C758.075 498.22 757.703 498.058 757.476 497.735C757.282 497.411 757.185 497.023 757.185 496.57V492.686C757.185 492.233 757.282 491.845 757.476 491.521C757.703 491.197 758.075 491.035 758.593 491.035H779.322C780.099 491.035 780.584 490.76 780.778 490.21C780.972 489.628 781.069 489.013 781.069 488.365V484.191C781.069 483.576 780.972 482.977 780.778 482.394C780.584 481.812 780.115 481.521 779.37 481.521H764.807C762.121 481.521 760.179 480.76 758.981 479.239C757.816 477.718 757.234 475.598 757.234 472.879V466.617C757.234 465.646 757.347 464.659 757.573 463.656C757.8 462.653 758.188 461.763 758.739 460.986C759.321 460.177 760.098 459.513 761.069 458.995C762.072 458.478 763.35 458.219 764.904 458.219H785.827C786.312 458.219 786.652 458.381 786.846 458.704C787.073 459.028 787.186 459.416 787.186 459.869V463.753C787.186 464.206 787.073 464.594 786.846 464.918C786.652 465.242 786.312 465.403 785.827 465.403H766.069C765.745 465.403 765.422 465.517 765.098 465.743C764.807 465.97 764.661 466.261 764.661 466.617V472.879Z" fill="#AD000C"/>
<path d="M749.532 458.219C750.018 458.219 750.358 458.397 750.552 458.753C750.778 459.076 750.892 459.465 750.892 459.918V491.958C750.892 492.702 750.843 493.447 750.746 494.191C750.649 494.935 750.406 495.615 750.018 496.23C749.662 496.812 749.112 497.298 748.367 497.686C747.623 498.042 746.587 498.22 745.26 498.22C744.386 498.22 743.61 498.204 742.93 498.172C742.25 498.139 741.619 498.01 741.037 497.783C740.487 497.557 739.969 497.201 739.483 496.715C738.998 496.23 738.512 495.55 738.027 494.676L722.492 467.297H722.25V496.521C722.25 496.974 722.136 497.379 721.91 497.735C721.716 498.058 721.376 498.22 720.89 498.22H716.57C716.084 498.22 715.728 498.058 715.502 497.735C715.275 497.379 715.162 496.974 715.162 496.521V464.481C715.162 463.704 715.194 462.944 715.259 462.199C715.356 461.455 715.55 460.792 715.842 460.209C716.133 459.627 716.554 459.157 717.104 458.801C717.654 458.413 718.398 458.219 719.337 458.219H722.978C723.787 458.219 724.434 458.283 724.92 458.413C725.438 458.542 725.858 458.753 726.182 459.044C726.538 459.303 726.862 459.659 727.153 460.112C727.444 460.565 727.768 461.115 728.124 461.763L743.61 489.142H743.852V459.918C743.852 459.465 743.95 459.076 744.144 458.753C744.338 458.397 744.694 458.219 745.212 458.219H749.532Z" fill="#AD000C"/>
<path d="M696.867 458.219C699.391 458.219 701.43 458.607 702.984 459.384C704.569 460.128 705.799 461.18 706.673 462.539C707.547 463.866 708.129 465.468 708.421 467.345C708.712 469.19 708.858 471.213 708.858 473.413V483.025C708.858 485.226 708.712 487.265 708.421 489.142C708.129 490.987 707.547 492.589 706.673 493.948C705.832 495.307 704.618 496.375 703.032 497.152C701.479 497.897 699.424 498.269 696.867 498.269H685.022C682.497 498.269 680.442 497.88 678.857 497.104C677.303 496.327 676.089 495.259 675.216 493.9C674.374 492.54 673.808 490.938 673.517 489.094C673.225 487.217 673.08 485.194 673.08 483.025V473.413C673.08 471.245 673.225 469.239 673.517 467.394C673.808 465.517 674.39 463.899 675.264 462.539C676.138 461.18 677.352 460.128 678.905 459.384C680.459 458.607 682.497 458.219 685.022 458.219H696.867ZM701.624 472.588C701.624 471.585 701.592 470.646 701.527 469.773C701.463 468.899 701.268 468.138 700.945 467.491C700.653 466.844 700.168 466.342 699.488 465.986C698.809 465.598 697.854 465.403 696.624 465.403H685.264C684.067 465.403 683.128 465.598 682.449 465.986C681.769 466.342 681.268 466.844 680.944 467.491C680.62 468.138 680.426 468.899 680.361 469.773C680.297 470.646 680.264 471.585 680.264 472.588V483.899C680.264 484.903 680.297 485.841 680.361 486.715C680.426 487.589 680.62 488.349 680.944 488.997C681.268 489.611 681.769 490.113 682.449 490.501C683.128 490.857 684.067 491.035 685.264 491.035H696.624C697.854 491.035 698.809 490.857 699.488 490.501C700.168 490.113 700.653 489.611 700.945 488.997C701.268 488.349 701.463 487.589 701.527 486.715C701.592 485.841 701.624 484.903 701.624 483.899V472.588Z" fill="#AD000C"/>
<path d="M665.385 458.219C665.579 458.219 665.854 458.316 666.21 458.51C666.566 458.704 666.744 459.173 666.744 459.918V496.57C666.744 497.314 666.566 497.783 666.21 497.977C665.854 498.172 665.579 498.269 665.385 498.269H660.918C660.724 498.269 660.449 498.172 660.093 497.977C659.737 497.783 659.559 497.314 659.559 496.57V459.918C659.559 459.173 659.737 458.704 660.093 458.51C660.449 458.316 660.724 458.219 660.918 458.219H665.385Z" fill="#AD000C"/>
<path d="M652.299 458.219C652.526 458.219 652.817 458.316 653.173 458.51C653.529 458.672 653.707 459.125 653.707 459.869V463.656C653.707 464.044 653.642 464.368 653.513 464.627C653.416 464.853 653.286 465.031 653.125 465.161C652.995 465.258 652.85 465.323 652.688 465.355C652.526 465.387 652.396 465.403 652.299 465.403H639.823V496.57C639.823 497.314 639.645 497.783 639.289 497.977C638.965 498.139 638.69 498.22 638.464 498.22H633.998C633.804 498.22 633.528 498.139 633.172 497.977C632.816 497.783 632.638 497.314 632.638 496.57V465.403H620.162C620.065 465.403 619.936 465.387 619.774 465.355C619.612 465.323 619.45 465.258 619.288 465.161C619.159 465.031 619.029 464.853 618.9 464.627C618.803 464.368 618.754 464.044 618.754 463.656V459.869C618.754 459.125 618.932 458.672 619.288 458.51C619.644 458.316 619.936 458.219 620.162 458.219H652.299Z" fill="#AD000C"/>
<path d="M612.04 458.219C612.526 458.219 612.865 458.381 613.059 458.704C613.286 459.028 613.399 459.416 613.399 459.869V483.025C613.399 485.259 613.254 487.314 612.962 489.191C612.671 491.035 612.089 492.637 611.215 493.997C610.373 495.324 609.16 496.359 607.574 497.104C606.02 497.848 603.965 498.22 601.409 498.22H590.486C587.929 498.22 585.858 497.848 584.272 497.104C582.719 496.359 581.505 495.324 580.631 493.997C579.79 492.637 579.223 491.035 578.932 489.191C578.641 487.314 578.495 485.259 578.495 483.025V459.869C578.495 459.416 578.592 459.028 578.786 458.704C579.013 458.381 579.385 458.219 579.903 458.219H584.321C584.806 458.219 585.146 458.381 585.34 458.704C585.567 459.028 585.68 459.416 585.68 459.869V483.802C585.68 484.805 585.712 485.744 585.777 486.618C585.842 487.492 586.036 488.268 586.359 488.948C586.683 489.595 587.185 490.113 587.864 490.501C588.544 490.857 589.499 491.035 590.729 491.035H601.214C602.444 491.035 603.399 490.857 604.079 490.501C604.758 490.113 605.244 489.595 605.535 488.948C605.859 488.301 606.053 487.54 606.118 486.666C606.182 485.76 606.215 484.805 606.215 483.802V459.869C606.215 459.416 606.312 459.028 606.506 458.704C606.732 458.381 607.088 458.219 607.574 458.219H612.04Z" fill="#AD000C"/>
<path d="M549.654 458.219C550.14 458.219 550.48 458.397 550.674 458.753C550.9 459.076 551.014 459.465 551.014 459.918V483.802C551.014 484.838 551.078 485.793 551.208 486.666C551.37 487.54 551.645 488.301 552.033 488.948C552.421 489.595 552.939 490.097 553.586 490.453C554.234 490.809 555.043 490.987 556.014 490.987H571.791C572.276 490.987 572.616 491.165 572.81 491.521C573.037 491.845 573.15 492.233 573.15 492.686V496.521C573.15 496.974 573.037 497.379 572.81 497.735C572.616 498.058 572.276 498.22 571.791 498.22H555.771C553.247 498.22 551.192 497.848 549.606 497.104C548.052 496.327 546.839 495.259 545.965 493.9C545.123 492.54 544.541 490.938 544.217 489.094C543.926 487.217 543.78 485.178 543.78 482.977V459.918C543.78 459.465 543.877 459.076 544.072 458.753C544.298 458.397 544.67 458.219 545.188 458.219H549.654Z" fill="#AD000C"/>
<path d="M525.971 458.219C528.496 458.219 530.535 458.607 532.088 459.384C533.674 460.128 534.904 461.18 535.778 462.539C536.651 463.866 537.234 465.468 537.525 467.345C537.816 469.19 537.962 471.213 537.962 473.413V483.025C537.962 485.226 537.816 487.265 537.525 489.142C537.234 490.987 536.651 492.589 535.778 493.948C534.936 495.307 533.722 496.375 532.137 497.152C530.583 497.897 528.528 498.269 525.971 498.269H514.126C511.602 498.269 509.547 497.88 507.961 497.104C506.408 496.327 505.194 495.259 504.32 493.9C503.479 492.54 502.912 490.938 502.621 489.094C502.33 487.217 502.184 485.194 502.184 483.025V473.413C502.184 471.245 502.33 469.239 502.621 467.394C502.912 465.517 503.495 463.899 504.369 462.539C505.242 461.18 506.456 460.128 508.01 459.384C509.563 458.607 511.602 458.219 514.126 458.219H525.971ZM530.729 472.588C530.729 471.585 530.696 470.646 530.632 469.773C530.567 468.899 530.373 468.138 530.049 467.491C529.758 466.844 529.272 466.342 528.593 465.986C527.913 465.598 526.958 465.403 525.729 465.403H514.369C513.172 465.403 512.233 465.598 511.553 465.986C510.874 466.342 510.372 466.844 510.048 467.491C509.725 468.138 509.531 468.899 509.466 469.773C509.401 470.646 509.369 471.585 509.369 472.588V483.899C509.369 484.903 509.401 485.841 509.466 486.715C509.531 487.589 509.725 488.349 510.048 488.997C510.372 489.611 510.874 490.113 511.553 490.501C512.233 490.857 513.172 491.035 514.369 491.035H525.729C526.958 491.035 527.913 490.857 528.593 490.501C529.272 490.113 529.758 489.611 530.049 488.997C530.373 488.349 530.567 487.589 530.632 486.715C530.696 485.841 530.729 484.903 530.729 483.899V472.588Z" fill="#AD000C"/>
<path d="M472.784 472.879C472.784 473.333 472.914 473.689 473.172 473.947C473.464 474.206 473.787 474.336 474.143 474.336H488.707C490.196 474.336 491.426 474.627 492.396 475.21C493.4 475.76 494.193 476.504 494.775 477.443C495.358 478.381 495.762 479.465 495.989 480.695C496.248 481.893 496.377 483.123 496.377 484.385V488.657C496.377 489.919 496.232 491.133 495.94 492.298C495.681 493.463 495.244 494.482 494.63 495.356C494.015 496.23 493.206 496.926 492.202 497.443C491.231 497.961 490.034 498.22 488.61 498.22H466.716C466.198 498.22 465.826 498.058 465.599 497.735C465.405 497.411 465.308 497.023 465.308 496.57V492.686C465.308 492.233 465.405 491.845 465.599 491.521C465.826 491.197 466.198 491.035 466.716 491.035H487.445C488.222 491.035 488.707 490.76 488.901 490.21C489.095 489.628 489.192 489.013 489.192 488.365V484.191C489.192 483.576 489.095 482.977 488.901 482.394C488.707 481.812 488.238 481.521 487.493 481.521H472.93C470.244 481.521 468.302 480.76 467.104 479.239C465.939 477.718 465.357 475.598 465.357 472.879V466.617C465.357 465.646 465.47 464.659 465.696 463.656C465.923 462.653 466.311 461.763 466.862 460.986C467.444 460.177 468.221 459.513 469.192 458.995C470.195 458.478 471.473 458.219 473.027 458.219H493.95C494.435 458.219 494.775 458.381 494.969 458.704C495.196 459.028 495.309 459.416 495.309 459.869V463.753C495.309 464.206 495.196 464.594 494.969 464.918C494.775 465.242 494.435 465.403 493.95 465.403H474.192C473.868 465.403 473.545 465.517 473.221 465.743C472.93 465.97 472.784 466.261 472.784 466.617V472.879Z" fill="#AD000C"/>
<path fill-rule="evenodd" clip-rule="evenodd" d="M281.965 -0.00390625C275.091 -0.00390625 269.339 5.21286 268.67 12.0544L262.482 75.311C241.531 80.8583 221.307 89.0621 202.315 99.7703L152.879 59.3188C147.58 54.983 139.861 55.3552 135.004 60.1806L69.2233 125.532C64.3466 130.377 63.9428 138.131 68.2898 143.457L107.961 192.054C106.885 193.867 105.831 195.694 104.799 197.535C94.2855 216.293 86.223 236.222 80.7388 256.834L11.9868 263.933C5.17633 264.637 0 270.375 0 277.222V369.946C0 376.82 5.21677 382.573 12.0583 383.242L81.1729 390.003C86.7068 410.269 94.7384 429.859 105.145 448.306C106.324 450.397 107.532 452.47 108.768 454.523L68.6794 501.975C64.2609 507.205 64.5117 514.929 69.2603 519.861L133.57 586.66C138.337 591.612 146.085 592.138 151.478 587.875L203.971 546.382C222.791 556.81 242.796 564.792 263.499 570.183L271.931 636.324C272.797 643.116 278.658 648.154 285.502 647.99L378.2 645.774C385.073 645.609 390.698 640.257 391.204 633.401L395.935 569.242C413.195 564.485 429.975 557.911 445.986 549.585L413.543 487.194C385.287 501.887 353.724 509.057 321.893 508.016C290.063 506.974 259.037 497.755 231.802 481.245C204.567 464.736 182.042 441.494 166.394 413.755C150.747 386.016 142.504 354.717 142.46 322.869C142.416 291.021 150.573 259.699 166.144 231.917C181.715 204.136 204.176 180.831 231.365 164.247C258.554 147.663 289.555 138.358 321.383 137.228C353.21 136.099 384.793 143.183 413.089 157.798L445.36 95.3169C429.108 86.9226 412.069 80.3299 394.548 75.6066L387.978 11.9829C387.275 5.17242 381.537 -0.00390625 374.69 -0.00390625H281.965Z" fill="#AD000C"/>
</svg>
