<svg width="2562" height="648" viewBox="0 0 2562 648" fill="none" xmlns="http://www.w3.org/2000/svg">
<path d="M390.911 550.143C73.2574 606.592 69.1425 287.396 582.065 12.4668C99.9877 168.209 -68.7 673.99 390.911 550.143Z" fill="url(#paint0_linear_102_2)"/>
<path d="M390.912 550.142C97.5926 582.413 59.8076 305.346 571.182 18.5566C89.7825 247.922 14.8446 616.811 390.912 550.142Z" fill="url(#paint1_linear_102_2)"/>
<path d="M607.705 -0.00195312L555.599 64.0472L551.38 26.5513L522.439 8.65457L607.705 -0.00195312Z" fill="url(#paint2_linear_102_2)"/>
<path d="M235.697 216.911C258.925 -123.894 623.559 116.192 699.89 633.908C680.088 84.05 222.59 -226.121 235.697 216.911Z" fill="url(#paint3_linear_102_2)"/>
<path d="M235.697 216.911C272.735 -148.934 637.604 175.05 696.842 624.769C668.283 199.428 259.585 -202.224 235.697 216.911Z" fill="url(#paint4_linear_102_2)"/>
<path d="M702.174 648.001L664.856 591.644L696.461 599.64L725.401 582.123L702.174 648.001Z" fill="url(#paint5_linear_102_2)"/>
<path d="M573.088 99.6627L627.921 95.4727V385.254L573.088 393.089V99.6627Z" fill="url(#paint6_linear_102_2)"/>
<path d="M543.385 84.0488L573.087 99.6621V393.089L543.385 376.848V84.0488Z" fill="#0D0A5B"/>
<path d="M543.385 84.0522L594.791 78.3398L627.92 95.4754L573.087 99.664L543.385 84.0522Z" fill="#818DB7"/>
<path d="M473.321 182.371L501.5 198.143V401.635L473.321 384.71V182.371Z" fill="#148F35"/>
<path d="M501.498 198.138L553.24 192.367V394.777L501.498 401.63V198.138Z" fill="url(#paint7_linear_102_2)"/>
<path d="M473.321 182.364L527.235 176.232L553.286 192.366L501.5 198.135L473.321 182.364Z" fill="#BED444"/>
<path d="M405.92 235.637L433.763 250.972V410.769L405.92 398.532V235.637Z" fill="#0D0A5B"/>
<path d="M433.763 250.932L484.744 244.814V404.295L433.763 410.768V250.932Z" fill="url(#paint8_linear_102_2)"/>
<path d="M405.92 235.639L456.9 227.992L484.744 244.817L433.763 250.935L405.92 235.639Z" fill="#818DB7"/>
<path d="M335.475 271.396L362.893 287.347V419.904L335.475 403.53V271.396Z" fill="#1F9634"/>
<path d="M362.892 287.389L416.582 280.535V413.049L362.892 419.903V287.389Z" fill="url(#paint9_linear_102_2)"/>
<path d="M335.475 271.395L383.836 265.303L416.583 280.535L362.893 287.388L335.475 271.395Z" fill="#C6E31C"/>
<path d="M264.647 311.764L292.064 326.233V429.428L264.647 413.815V311.764Z" fill="#0D0A5B"/>
<path d="M292.065 326.234L345.755 322.426V422.193L292.065 429.428V326.234Z" fill="url(#paint10_linear_102_2)"/>
<path d="M264.647 311.766L312.246 307.197L345.754 322.428L292.064 326.236L264.647 311.766Z" fill="#818DB7"/>
<path d="M194.203 363.398L221.238 379.657V438.183L194.203 421.52V363.398Z" fill="#148F34"/>
<path d="M221.237 379.659L273.787 375.594L273.405 431.331L221.237 438.186V379.659Z" fill="url(#paint11_linear_102_2)"/>
<path d="M194.203 363.405L244.848 359.746L273.788 375.597L221.238 379.661L194.203 363.405Z" fill="#CEDE62"/>
<path d="M649.778 295.066C870.137 559.703 424.578 587.073 8.75659 323.569C371.648 623.249 994.654 623.676 649.778 295.066Z" fill="url(#paint12_linear_102_2)"/>
<path d="M649.778 295.066C865.059 555.712 435.874 593.21 6.34521 319.472C318.593 569.65 948.917 617.593 649.778 295.066Z" fill="url(#paint13_linear_102_2)"/>
<path d="M0 317.473L79.9656 338.036L47.2182 349.84L38.4597 380.303L0 317.473Z" fill="url(#paint14_linear_102_2)"/>
<path d="M1091.27 442.003C1090.89 438.796 1089.35 436.306 1086.65 434.534C1083.95 432.762 1080.63 431.876 1076.71 431.876C1073.84 431.876 1071.33 432.34 1069.18 433.268C1067.05 434.197 1065.38 435.473 1064.18 437.098C1063 438.722 1062.41 440.568 1062.41 442.636C1062.41 444.366 1062.82 445.853 1063.64 447.098C1064.48 448.321 1065.56 449.345 1066.87 450.168C1068.18 450.969 1069.55 451.634 1070.98 452.161C1072.42 452.668 1073.73 453.079 1074.94 453.395L1081.52 455.168C1083.21 455.611 1085.09 456.222 1087.15 457.003C1089.24 457.784 1091.23 458.849 1093.13 460.199C1095.05 461.528 1096.64 463.237 1097.88 465.326C1099.13 467.415 1099.75 469.978 1099.75 473.016C1099.75 476.518 1098.83 479.683 1096.99 482.51C1095.18 485.337 1092.52 487.584 1089.02 489.251C1085.54 490.917 1081.31 491.751 1076.33 491.751C1071.69 491.751 1067.67 491.002 1064.27 489.504C1060.9 488.006 1058.24 485.917 1056.3 483.238C1054.38 480.558 1053.29 477.447 1053.04 473.902H1061.14C1061.35 476.349 1062.17 478.375 1063.61 479.978C1065.06 481.561 1066.9 482.742 1069.11 483.523C1071.35 484.282 1073.76 484.662 1076.33 484.662C1079.33 484.662 1082.02 484.177 1084.4 483.206C1086.78 482.215 1088.67 480.843 1090.06 479.092C1091.46 477.32 1092.15 475.252 1092.15 472.889C1092.15 470.738 1091.55 468.986 1090.35 467.636C1089.15 466.286 1087.56 465.189 1085.6 464.345C1083.64 463.501 1081.52 462.763 1079.24 462.13L1071.27 459.851C1066.2 458.396 1062.19 456.317 1059.24 453.617C1056.29 450.916 1054.81 447.383 1054.81 443.015C1054.81 439.387 1055.79 436.222 1057.75 433.522C1059.74 430.8 1062.39 428.69 1065.73 427.192C1069.08 425.673 1072.83 424.914 1076.96 424.914C1081.14 424.914 1084.85 425.663 1088.1 427.161C1091.35 428.638 1093.92 430.663 1095.82 433.237C1097.74 435.811 1098.76 438.733 1098.86 442.003H1091.27ZM1112.65 490.611V425.8H1151.77V432.762H1120.5V454.661H1149.74V461.623H1120.5V483.649H1152.27V490.611H1112.65ZM1165.91 490.611V425.8H1188.57C1193.09 425.8 1196.81 426.581 1199.74 428.142C1202.67 429.682 1204.86 431.76 1206.29 434.376C1207.73 436.971 1208.44 439.851 1208.44 443.015C1208.44 445.8 1207.95 448.1 1206.96 449.914C1205.99 451.729 1204.7 453.163 1203.1 454.218C1201.51 455.273 1199.79 456.054 1197.94 456.56V457.193C1199.92 457.32 1201.91 458.016 1203.92 459.282C1205.92 460.547 1207.6 462.362 1208.95 464.725C1210.3 467.088 1210.98 469.978 1210.98 473.396C1210.98 476.645 1210.24 479.567 1208.76 482.162C1207.28 484.757 1204.95 486.814 1201.77 488.333C1198.58 489.852 1194.44 490.611 1189.33 490.611H1165.91ZM1173.76 483.649H1189.33C1194.46 483.649 1198.1 482.658 1200.25 480.674C1202.42 478.67 1203.51 476.244 1203.51 473.396C1203.51 471.202 1202.95 469.176 1201.83 467.32C1200.71 465.442 1199.12 463.944 1197.05 462.826C1194.98 461.687 1192.54 461.117 1189.71 461.117H1173.76V483.649ZM1173.76 454.282H1188.32C1190.68 454.282 1192.81 453.817 1194.71 452.889C1196.63 451.961 1198.15 450.653 1199.27 448.965C1200.41 447.277 1200.98 445.294 1200.98 443.015C1200.98 440.167 1199.98 437.752 1198 435.768C1196.02 433.764 1192.87 432.762 1188.57 432.762H1173.76V454.282ZM1231.72 425.8V490.611H1223.87V425.8H1231.72ZM1272.52 490.611V425.8H1294.42C1299.48 425.8 1303.64 426.665 1306.89 428.395C1310.14 430.104 1312.54 432.456 1314.1 435.452C1315.66 438.448 1316.44 441.855 1316.44 445.674C1316.44 449.492 1315.66 452.879 1314.1 455.832C1312.54 458.786 1310.15 461.107 1306.92 462.794C1303.69 464.461 1299.57 465.294 1294.55 465.294H1276.82V458.206H1294.29C1297.75 458.206 1300.54 457.699 1302.65 456.687C1304.78 455.674 1306.32 454.239 1307.27 452.383C1308.24 450.505 1308.72 448.269 1308.72 445.674C1308.72 443.079 1308.24 440.811 1307.27 438.87C1306.3 436.929 1304.75 435.431 1302.62 434.376C1300.48 433.3 1297.67 432.762 1294.17 432.762H1280.37V490.611H1272.52ZM1303.03 461.497L1318.98 490.611H1309.86L1294.17 461.497H1303.03ZM1348.37 491.624C1343.68 491.624 1339.64 490.59 1336.25 488.523C1332.87 486.434 1330.27 483.523 1328.43 479.788C1326.62 476.033 1325.71 471.666 1325.71 466.687C1325.71 461.708 1326.62 457.32 1328.43 453.522C1330.27 449.703 1332.82 446.729 1336.09 444.598C1339.38 442.446 1343.22 441.37 1347.61 441.37C1350.14 441.37 1352.64 441.792 1355.11 442.636C1357.58 443.48 1359.82 444.851 1361.85 446.75C1363.87 448.627 1365.49 451.117 1366.69 454.218C1367.89 457.32 1368.5 461.138 1368.5 465.674V468.839H1331.03V462.383H1360.9C1360.9 459.64 1360.35 457.193 1359.25 455.041C1358.18 452.889 1356.64 451.191 1354.63 449.946C1352.65 448.701 1350.31 448.079 1347.61 448.079C1344.63 448.079 1342.06 448.817 1339.89 450.294C1337.73 451.75 1336.08 453.649 1334.92 455.99C1333.76 458.332 1333.18 460.843 1333.18 463.522V467.826C1333.18 471.497 1333.81 474.609 1335.08 477.162C1336.36 479.693 1338.15 481.624 1340.42 482.953C1342.7 484.261 1345.35 484.915 1348.37 484.915C1350.33 484.915 1352.1 484.641 1353.68 484.092C1355.29 483.523 1356.67 482.679 1357.83 481.561C1358.99 480.421 1359.89 479.008 1360.52 477.32L1367.74 479.345C1366.98 481.793 1365.7 483.945 1363.91 485.801C1362.11 487.637 1359.9 489.071 1357.26 490.105C1354.62 491.118 1351.66 491.624 1348.37 491.624ZM1399.48 509.852C1395.87 509.852 1392.77 509.388 1390.17 508.46C1387.58 507.553 1385.42 506.35 1383.69 504.852C1381.98 503.375 1380.62 501.793 1379.6 500.105L1385.55 495.928C1386.23 496.814 1387.08 497.827 1388.12 498.966C1389.15 500.126 1390.56 501.128 1392.36 501.972C1394.17 502.837 1396.54 503.27 1399.48 503.27C1403.4 503.27 1406.64 502.32 1409.19 500.422C1411.74 498.523 1413.02 495.548 1413.02 491.497V481.624H1412.39C1411.84 482.51 1411.06 483.607 1410.05 484.915C1409.05 486.202 1407.62 487.352 1405.74 488.364C1403.89 489.356 1401.38 489.852 1398.21 489.852C1394.29 489.852 1390.76 488.924 1387.64 487.067C1384.54 485.21 1382.08 482.51 1380.27 478.966C1378.47 475.421 1377.58 471.117 1377.58 466.054C1377.58 461.075 1378.45 456.739 1380.2 453.047C1381.96 449.334 1384.39 446.465 1387.51 444.44C1390.64 442.393 1394.24 441.37 1398.34 441.37C1401.5 441.37 1404.01 441.897 1405.87 442.952C1407.75 443.986 1409.18 445.167 1410.17 446.497C1411.19 447.805 1411.97 448.881 1412.51 449.724H1413.27V442.003H1420.49V492.004C1420.49 496.181 1419.54 499.578 1417.64 502.194C1415.76 504.831 1413.23 506.761 1410.05 507.985C1406.88 509.23 1403.36 509.852 1399.48 509.852ZM1399.22 483.143C1402.22 483.143 1404.75 482.457 1406.82 481.086C1408.89 479.714 1410.46 477.742 1411.53 475.168C1412.61 472.594 1413.15 469.514 1413.15 465.927C1413.15 462.425 1412.62 459.334 1411.57 456.655C1410.51 453.976 1408.95 451.876 1406.88 450.357C1404.81 448.838 1402.26 448.079 1399.22 448.079C1396.06 448.079 1393.42 448.881 1391.31 450.484C1389.22 452.087 1387.65 454.239 1386.6 456.94C1385.56 459.64 1385.05 462.636 1385.05 465.927C1385.05 469.303 1385.57 472.288 1386.63 474.883C1387.7 477.457 1389.29 479.482 1391.38 480.959C1393.48 482.415 1396.1 483.143 1399.22 483.143ZM1441.63 461.37V490.611H1434.16V442.003H1441.38V449.598H1442.01C1443.15 447.129 1444.88 445.146 1447.2 443.648C1449.52 442.129 1452.52 441.37 1456.19 441.37C1459.48 441.37 1462.36 442.045 1464.83 443.395C1467.29 444.724 1469.21 446.75 1470.59 449.471C1471.96 452.172 1472.64 455.59 1472.64 459.725V490.611H1465.17V460.231C1465.17 456.412 1464.18 453.438 1462.2 451.307C1460.22 449.155 1457.49 448.079 1454.03 448.079C1451.65 448.079 1449.52 448.596 1447.64 449.63C1445.79 450.663 1444.32 452.172 1443.24 454.155C1442.17 456.138 1441.63 458.543 1441.63 461.37ZM1491.73 491.118C1490.17 491.118 1488.83 490.559 1487.71 489.44C1486.6 488.322 1486.04 486.983 1486.04 485.421C1486.04 483.86 1486.6 482.52 1487.71 481.402C1488.83 480.284 1490.17 479.725 1491.73 479.725C1493.29 479.725 1494.63 480.284 1495.75 481.402C1496.87 482.52 1497.43 483.86 1497.43 485.421C1497.43 486.455 1497.17 487.405 1496.64 488.27C1496.13 489.135 1495.45 489.831 1494.58 490.358C1493.74 490.864 1492.79 491.118 1491.73 491.118ZM1538.55 458.206C1538.55 450.231 1539.59 442.899 1541.66 436.212C1543.74 429.503 1546.72 423.332 1550.58 417.699H1557.16C1555.64 419.787 1554.22 422.361 1552.89 425.42C1551.58 428.458 1550.43 431.802 1549.44 435.452C1548.45 439.081 1547.67 442.836 1547.1 446.718C1546.55 450.6 1546.28 454.429 1546.28 458.206C1546.28 463.227 1546.76 468.322 1547.73 473.491C1548.7 478.66 1550.01 483.459 1551.66 487.89C1553.3 492.32 1555.14 495.928 1557.16 498.713H1550.58C1546.72 493.08 1543.74 486.919 1541.66 480.231C1539.59 473.522 1538.55 466.18 1538.55 458.206ZM1577.04 425.8V490.611H1569.2V425.8H1577.04ZM1595.44 490.611H1587.21L1611.01 425.8H1619.11L1642.91 490.611H1634.68L1615.31 436.053H1614.81L1595.44 490.611ZM1598.48 465.294H1631.64V472.257H1598.48V465.294ZM1667.94 458.206C1667.94 466.18 1666.89 473.522 1664.81 480.231C1662.74 486.919 1659.77 493.08 1655.91 498.713H1649.33C1650.85 496.624 1652.26 494.05 1653.57 490.991C1654.9 487.953 1656.06 484.62 1657.05 480.991C1658.04 477.341 1658.81 473.575 1659.36 469.693C1659.93 465.79 1660.22 461.961 1660.22 458.206C1660.22 453.184 1659.73 448.089 1658.76 442.921C1657.79 437.752 1656.48 432.952 1654.84 428.522C1653.19 424.091 1651.36 420.483 1649.33 417.699H1655.91C1659.77 423.332 1662.74 429.503 1664.81 436.212C1666.89 442.899 1667.94 450.231 1667.94 458.206ZM1689.72 482.32C1688.16 482.32 1686.82 481.761 1685.7 480.643C1684.58 479.525 1684.02 478.185 1684.02 476.624C1684.02 475.063 1684.58 473.723 1685.7 472.605C1686.82 471.486 1688.16 470.927 1689.72 470.927C1691.28 470.927 1692.62 471.486 1693.74 472.605C1694.86 473.723 1695.42 475.063 1695.42 476.624C1695.42 477.657 1695.15 478.607 1694.62 479.472C1694.12 480.337 1693.43 481.033 1692.57 481.561C1691.72 482.067 1690.77 482.32 1689.72 482.32ZM1689.72 449.535C1688.16 449.535 1686.82 448.976 1685.7 447.857C1684.58 446.739 1684.02 445.399 1684.02 443.838C1684.02 442.277 1684.58 440.937 1685.7 439.819C1686.82 438.701 1688.16 438.142 1689.72 438.142C1691.28 438.142 1692.62 438.701 1693.74 439.819C1694.86 440.937 1695.42 442.277 1695.42 443.838C1695.42 444.872 1695.15 445.821 1694.62 446.686C1694.12 447.551 1693.43 448.248 1692.57 448.775C1691.72 449.281 1690.77 449.535 1689.72 449.535ZM1742.74 425.8V490.611H1734.89V425.8H1742.74ZM1809.87 425.8V490.611H1802.28L1766.96 439.724H1766.33V490.611H1758.48V425.8H1766.07L1801.52 476.814H1802.15V425.8H1809.87ZM1828.23 490.611H1820.01L1843.8 425.8H1851.91L1875.7 490.611H1867.48L1848.11 436.053H1847.6L1828.23 490.611ZM1831.27 465.294H1864.44V472.257H1831.27V465.294ZM1905.8 491.497C1901.03 491.497 1896.97 490.2 1893.62 487.605C1890.26 484.989 1887.7 481.202 1885.93 476.244C1884.15 471.265 1883.27 465.252 1883.27 458.206C1883.27 451.201 1884.15 445.22 1885.93 440.262C1887.72 435.283 1890.29 431.486 1893.65 428.87C1897.02 426.232 1901.07 424.914 1905.8 424.914C1910.53 424.914 1914.57 426.232 1917.92 428.87C1921.3 431.486 1923.87 435.283 1925.64 440.262C1927.44 445.22 1928.33 451.201 1928.33 458.206C1928.33 465.252 1927.45 471.265 1925.67 476.244C1923.9 481.202 1921.34 484.989 1917.98 487.605C1914.63 490.2 1910.57 491.497 1905.8 491.497ZM1905.8 484.535C1910.53 484.535 1914.2 482.257 1916.81 477.7C1919.43 473.143 1920.74 466.645 1920.74 458.206C1920.74 452.594 1920.14 447.815 1918.93 443.87C1917.75 439.925 1916.04 436.918 1913.81 434.851C1911.59 432.783 1908.92 431.749 1905.8 431.749C1901.12 431.749 1897.46 434.06 1894.82 438.68C1892.18 443.279 1890.86 449.788 1890.86 458.206C1890.86 463.818 1891.45 468.586 1892.63 472.51C1893.82 476.434 1895.51 479.419 1897.73 481.466C1899.97 483.512 1902.66 484.535 1905.8 484.535ZM1961.5 491.497C1956.73 491.497 1952.67 490.2 1949.31 487.605C1945.96 484.989 1943.4 481.202 1941.62 476.244C1939.85 471.265 1938.96 465.252 1938.96 458.206C1938.96 451.201 1939.85 445.22 1941.62 440.262C1943.42 435.283 1945.99 431.486 1949.34 428.87C1952.72 426.232 1956.77 424.914 1961.5 424.914C1966.22 424.914 1970.26 426.232 1973.62 428.87C1976.99 431.486 1979.57 435.283 1981.34 440.262C1983.13 445.22 1984.03 451.201 1984.03 458.206C1984.03 465.252 1983.14 471.265 1981.37 476.244C1979.6 481.202 1977.04 484.989 1973.68 487.605C1970.33 490.2 1966.27 491.497 1961.5 491.497ZM1961.5 484.535C1966.22 484.535 1969.89 482.257 1972.51 477.7C1975.13 473.143 1976.43 466.645 1976.43 458.206C1976.43 452.594 1975.83 447.815 1974.63 443.87C1973.45 439.925 1971.74 436.918 1969.5 434.851C1967.29 432.783 1964.62 431.749 1961.5 431.749C1956.81 431.749 1953.15 434.06 1950.52 438.68C1947.88 443.279 1946.56 449.788 1946.56 458.206C1946.56 463.818 1947.15 468.586 1948.33 472.51C1949.51 476.434 1951.21 479.419 1953.43 481.466C1955.66 483.512 1958.35 484.535 1961.5 484.535ZM2017.19 491.497C2012.43 491.497 2008.36 490.2 2005.01 487.605C2001.66 484.989 1999.09 481.202 1997.32 476.244C1995.55 471.265 1994.66 465.252 1994.66 458.206C1994.66 451.201 1995.55 445.22 1997.32 440.262C1999.11 435.283 2001.69 431.486 2005.04 428.87C2008.42 426.232 2012.47 424.914 2017.19 424.914C2021.92 424.914 2025.96 426.232 2029.31 428.87C2032.69 431.486 2035.26 435.283 2037.04 440.262C2038.83 445.22 2039.73 451.201 2039.73 458.206C2039.73 465.252 2038.84 471.265 2037.07 476.244C2035.3 481.202 2032.73 484.989 2029.38 487.605C2026.02 490.2 2021.96 491.497 2017.19 491.497ZM2017.19 484.535C2021.92 484.535 2025.59 482.257 2028.21 477.7C2030.82 473.143 2032.13 466.645 2032.13 458.206C2032.13 452.594 2031.53 447.815 2030.33 443.87C2029.15 439.925 2027.44 436.918 2025.2 434.851C2022.99 432.783 2020.32 431.749 2017.19 431.749C2012.51 431.749 2008.85 434.06 2006.21 438.68C2003.58 443.279 2002.26 449.788 2002.26 458.206C2002.26 463.818 2002.85 468.586 2004.03 472.51C2005.21 476.434 2006.91 479.419 2009.12 481.466C2011.36 483.512 2014.05 484.535 2017.19 484.535ZM2072.89 491.497C2068.12 491.497 2064.06 490.2 2060.71 487.605C2057.35 484.989 2054.79 481.202 2053.02 476.244C2051.25 471.265 2050.36 465.252 2050.36 458.206C2050.36 451.201 2051.25 445.22 2053.02 440.262C2054.81 435.283 2057.38 431.486 2060.74 428.87C2064.12 426.232 2068.17 424.914 2072.89 424.914C2077.62 424.914 2081.66 426.232 2085.01 428.87C2088.39 431.486 2090.96 435.283 2092.73 440.262C2094.53 445.22 2095.42 451.201 2095.42 458.206C2095.42 465.252 2094.54 471.265 2092.77 476.244C2090.99 481.202 2088.43 484.989 2085.08 487.605C2081.72 490.2 2077.66 491.497 2072.89 491.497ZM2072.89 484.535C2077.62 484.535 2081.29 482.257 2083.9 477.7C2086.52 473.143 2087.83 466.645 2087.83 458.206C2087.83 452.594 2087.23 447.815 2086.02 443.87C2084.84 439.925 2083.13 436.918 2080.9 434.851C2078.68 432.783 2076.01 431.749 2072.89 431.749C2068.21 431.749 2064.55 434.06 2061.91 438.68C2059.27 443.279 2057.95 449.788 2057.95 458.206C2057.95 463.818 2058.55 468.586 2059.73 472.51C2060.91 476.434 2062.61 479.419 2064.82 481.466C2067.06 483.512 2069.75 484.535 2072.89 484.535ZM2128.59 491.497C2123.82 491.497 2119.76 490.2 2116.41 487.605C2113.05 484.989 2110.49 481.202 2108.72 476.244C2106.94 471.265 2106.06 465.252 2106.06 458.206C2106.06 451.201 2106.94 445.22 2108.72 440.262C2110.51 435.283 2113.08 431.486 2116.44 428.87C2119.81 426.232 2123.86 424.914 2128.59 424.914C2133.31 424.914 2137.35 426.232 2140.71 428.87C2144.08 431.486 2146.66 435.283 2148.43 440.262C2150.22 445.22 2151.12 451.201 2151.12 458.206C2151.12 465.252 2150.23 471.265 2148.46 476.244C2146.69 481.202 2144.13 484.989 2140.77 487.605C2137.42 490.2 2133.36 491.497 2128.59 491.497ZM2128.59 484.535C2133.31 484.535 2136.99 482.257 2139.6 477.7C2142.22 473.143 2143.53 466.645 2143.53 458.206C2143.53 452.594 2142.92 447.815 2141.72 443.87C2140.54 439.925 2138.83 436.918 2136.6 434.851C2134.38 432.783 2131.71 431.749 2128.59 431.749C2123.91 431.749 2120.24 434.06 2117.61 438.68C2114.97 443.279 2113.65 449.788 2113.65 458.206C2113.65 463.818 2114.24 468.586 2115.42 472.51C2116.61 476.434 2118.3 479.419 2120.52 481.466C2122.76 483.512 2125.45 484.535 2128.59 484.535ZM2183.4 491.497C2179.69 491.497 2176.34 490.759 2173.37 489.282C2170.39 487.805 2168.01 485.78 2166.22 483.206C2164.42 480.632 2163.44 477.7 2163.27 474.408H2170.87C2171.16 477.341 2172.49 479.767 2174.86 481.687C2177.24 483.586 2180.09 484.535 2183.4 484.535C2186.06 484.535 2188.42 483.913 2190.49 482.668C2192.58 481.423 2194.21 479.714 2195.39 477.541C2196.6 475.347 2197.2 472.868 2197.2 470.105C2197.2 467.278 2196.58 464.756 2195.33 462.541C2194.11 460.305 2192.42 458.543 2190.27 457.256C2188.12 455.969 2185.66 455.315 2182.89 455.294C2180.91 455.273 2178.87 455.579 2176.79 456.212C2174.7 456.824 2172.98 457.615 2171.63 458.585L2164.29 457.699L2168.21 425.8H2201.88V432.762H2174.79L2172.51 451.876H2172.89C2174.22 450.822 2175.89 449.946 2177.89 449.25C2179.9 448.554 2181.99 448.205 2184.16 448.205C2188.13 448.205 2191.66 449.155 2194.76 451.054C2197.88 452.931 2200.33 455.505 2202.1 458.775C2203.9 462.045 2204.79 465.78 2204.79 469.978C2204.79 474.113 2203.86 477.805 2202.01 481.054C2200.17 484.282 2197.64 486.835 2194.41 488.713C2191.19 490.569 2187.51 491.497 2183.4 491.497ZM2239.26 491.497C2235.09 491.497 2231.36 490.78 2228.09 489.345C2224.84 487.911 2222.26 485.917 2220.34 483.364C2218.44 480.79 2217.41 477.805 2217.24 474.408H2225.21C2225.38 476.497 2226.1 478.301 2227.36 479.82C2228.63 481.318 2230.29 482.478 2232.33 483.301C2234.38 484.124 2236.65 484.535 2239.14 484.535C2241.92 484.535 2244.39 484.05 2246.54 483.08C2248.69 482.109 2250.38 480.759 2251.61 479.029C2252.83 477.299 2253.44 475.295 2253.44 473.016C2253.44 470.632 2252.85 468.533 2251.67 466.718C2250.49 464.883 2248.76 463.448 2246.48 462.415C2244.2 461.381 2241.42 460.864 2238.12 460.864H2232.93V453.902H2238.12C2240.7 453.902 2242.96 453.438 2244.9 452.509C2246.86 451.581 2248.39 450.273 2249.49 448.585C2250.6 446.897 2251.16 444.914 2251.16 442.636C2251.16 440.442 2250.68 438.532 2249.71 436.908C2248.74 435.283 2247.36 434.017 2245.59 433.11C2243.84 432.203 2241.77 431.749 2239.39 431.749C2237.15 431.749 2235.04 432.161 2233.06 432.984C2231.1 433.785 2229.5 434.956 2228.25 436.496C2227.01 438.015 2226.33 439.851 2226.23 442.003H2218.63C2218.76 438.606 2219.78 435.631 2221.7 433.079C2223.62 430.505 2226.13 428.5 2229.23 427.066C2232.35 425.631 2235.78 424.914 2239.52 424.914C2243.53 424.914 2246.96 425.726 2249.83 427.351C2252.7 428.954 2254.91 431.074 2256.45 433.711C2257.99 436.349 2258.76 439.197 2258.76 442.256C2258.76 445.906 2257.8 449.018 2255.88 451.592C2253.98 454.165 2251.39 455.948 2248.12 456.94V457.446C2252.22 458.121 2255.41 459.862 2257.71 462.668C2260.01 465.453 2261.16 468.902 2261.16 473.016C2261.16 476.539 2260.2 479.704 2258.28 482.51C2256.38 485.295 2253.79 487.489 2250.5 489.092C2247.21 490.696 2243.46 491.497 2239.26 491.497ZM2296.01 491.497C2291.83 491.497 2288.1 490.78 2284.83 489.345C2281.59 487.911 2279 485.917 2277.08 483.364C2275.18 480.79 2274.15 477.805 2273.98 474.408H2281.95C2282.12 476.497 2282.84 478.301 2284.11 479.82C2285.37 481.318 2287.03 482.478 2289.07 483.301C2291.12 484.124 2293.39 484.535 2295.88 484.535C2298.66 484.535 2301.13 484.05 2303.28 483.08C2305.44 482.109 2307.12 480.759 2308.35 479.029C2309.57 477.299 2310.18 475.295 2310.18 473.016C2310.18 470.632 2309.59 468.533 2308.41 466.718C2307.23 464.883 2305.5 463.448 2303.22 462.415C2300.94 461.381 2298.16 460.864 2294.87 460.864H2289.68V453.902H2294.87C2297.44 453.902 2299.7 453.438 2301.64 452.509C2303.6 451.581 2305.13 450.273 2306.23 448.585C2307.35 446.897 2307.9 444.914 2307.9 442.636C2307.9 440.442 2307.42 438.532 2306.45 436.908C2305.48 435.283 2304.11 434.017 2302.33 433.11C2300.58 432.203 2298.52 431.749 2296.13 431.749C2293.9 431.749 2291.79 432.161 2289.8 432.984C2287.84 433.785 2286.24 434.956 2284.99 436.496C2283.75 438.015 2283.07 439.851 2282.97 442.003H2275.37C2275.5 438.606 2276.52 435.631 2278.44 433.079C2280.36 430.505 2282.87 428.5 2285.97 427.066C2289.1 425.631 2292.52 424.914 2296.26 424.914C2300.27 424.914 2303.71 425.726 2306.57 427.351C2309.44 428.954 2311.65 431.074 2313.19 433.711C2314.73 436.349 2315.5 439.197 2315.5 442.256C2315.5 445.906 2314.54 449.018 2312.62 451.592C2310.72 454.165 2308.14 455.948 2304.87 456.94V457.446C2308.96 458.121 2312.16 459.862 2314.45 462.668C2316.75 465.453 2317.9 468.902 2317.9 473.016C2317.9 476.539 2316.94 479.704 2315.02 482.51C2313.13 485.295 2310.53 487.489 2307.24 489.092C2303.95 490.696 2300.2 491.497 2296.01 491.497ZM2352.75 491.497C2348.57 491.497 2344.85 490.78 2341.58 489.345C2338.33 487.911 2335.74 485.917 2333.82 483.364C2331.92 480.79 2330.89 477.805 2330.72 474.408H2338.7C2338.86 476.497 2339.58 478.301 2340.85 479.82C2342.11 481.318 2343.77 482.478 2345.82 483.301C2347.86 484.124 2350.13 484.535 2352.62 484.535C2355.4 484.535 2357.87 484.05 2360.03 483.08C2362.18 482.109 2363.87 480.759 2365.09 479.029C2366.31 477.299 2366.92 475.295 2366.92 473.016C2366.92 470.632 2366.33 468.533 2365.15 466.718C2363.97 464.883 2362.24 463.448 2359.96 462.415C2357.68 461.381 2354.9 460.864 2351.61 460.864H2346.42V453.902H2351.61C2354.18 453.902 2356.44 453.438 2358.38 452.509C2360.34 451.581 2361.87 450.273 2362.97 448.585C2364.09 446.897 2364.65 444.914 2364.65 442.636C2364.65 440.442 2364.16 438.532 2363.19 436.908C2362.22 435.283 2360.85 434.017 2359.08 433.11C2357.32 432.203 2355.26 431.749 2352.87 431.749C2350.64 431.749 2348.53 432.161 2346.54 432.984C2344.58 433.785 2342.98 434.956 2341.73 436.496C2340.49 438.015 2339.81 439.851 2339.71 442.003H2332.11C2332.24 438.606 2333.26 435.631 2335.18 433.079C2337.1 430.505 2339.61 428.5 2342.71 427.066C2345.84 425.631 2349.27 424.914 2353 424.914C2357.01 424.914 2360.45 425.726 2363.32 427.351C2366.19 428.954 2368.39 431.074 2369.93 433.711C2371.47 436.349 2372.24 439.197 2372.24 442.256C2372.24 445.906 2371.28 449.018 2369.36 451.592C2367.46 454.165 2364.88 455.948 2361.61 456.94V457.446C2365.7 458.121 2368.9 459.862 2371.2 462.668C2373.5 465.453 2374.65 468.902 2374.65 473.016C2374.65 476.539 2373.69 479.704 2371.77 482.51C2369.87 485.295 2367.27 487.489 2363.98 489.092C2360.69 490.696 2356.95 491.497 2352.75 491.497Z" fill="#0D0A5B"/>
<path d="M1065.24 326.745C1071.67 323.343 1074.88 315.972 1074.88 304.632L1059.01 163.454L996.07 330.147C989.834 325.232 984.919 320.129 981.329 314.838C979.439 312.192 976.415 305.861 972.257 295.844L918.677 163.738L902.519 289.891C901.385 298.584 900.818 304.727 900.818 308.318C900.818 316.823 903.936 322.964 910.173 326.745H867.366C872.469 321.263 876.154 314.933 878.422 307.751C879.556 304.349 880.878 297.073 882.391 285.922L898.266 164.588C899.022 159.297 899.4 155.8 899.4 154.099C899.4 147.107 896.565 141.814 890.895 138.224L937.671 137.373C937.671 139.263 938.994 143.61 941.64 150.414L994.369 278.835L1040.86 155.233C1043.7 147.484 1045.11 141.625 1045.11 137.657L1091.32 137.373C1086.41 140.586 1083.95 146.445 1083.95 154.95L1102.38 296.978C1103.7 306.995 1104.65 312.759 1105.21 314.271C1106.92 318.807 1110.41 322.964 1115.7 326.745H1065.24ZM1262.73 326.745C1268.58 323.343 1271.52 319.846 1271.52 316.256C1271.52 313.799 1269.43 307.184 1265.28 296.411L1249.97 255.305H1179.1L1164.64 296.411C1161.62 304.727 1160.11 310.964 1160.11 315.122C1160.11 320.224 1162.84 324.098 1168.33 326.745H1120.7C1126.75 322.964 1131.57 318.052 1135.16 312.003C1137.04 308.98 1140.83 300.097 1146.5 285.355L1193.27 164.872C1196.29 157.501 1197.81 152.02 1197.81 148.429C1197.81 143.326 1195.54 139.925 1191.01 138.224L1232.4 137.373L1290.51 285.355C1296.93 301.609 1300.72 310.681 1301.85 312.57C1305.64 318.618 1310.46 323.343 1316.31 326.745H1262.73ZM1214.25 160.336L1186.19 234.894H1242.32L1214.25 160.336ZM1470.22 326.745C1456.23 326.745 1445.55 322.02 1438.18 312.57L1404.16 268.913L1378.65 228.657C1410.77 223.176 1426.84 209.285 1426.84 186.984C1426.84 177.157 1423.16 169.124 1415.79 162.887C1408.6 157.217 1400.1 154.383 1390.27 154.383C1385.74 154.383 1379.3 155.233 1370.99 156.934V294.71C1370.99 312.665 1374.58 323.343 1381.77 326.745H1332.44C1339.61 322.776 1343.21 312.098 1343.21 294.71V168.557C1343.21 152.115 1339.61 142.004 1332.44 138.224L1397.08 137.373C1412.95 137.185 1426.18 140.775 1436.76 148.146C1448.47 156.462 1454.34 168.274 1454.34 183.582C1454.34 196.056 1449.99 206.923 1441.3 216.183C1432.8 225.255 1422.31 231.208 1409.83 234.043L1450.37 287.056C1461.14 301.042 1475.79 314.271 1494.31 326.745H1470.22ZM1620.49 326.745C1605.95 327.312 1595.55 323.248 1589.31 314.555L1527.51 228.374L1563.8 178.196C1574.39 163.643 1579.67 153.911 1579.67 148.996C1579.67 144.272 1577.32 140.68 1572.59 138.224L1620.21 137.373L1556.43 222.42L1612.84 299.53C1620.59 310.114 1631.37 318.902 1645.16 325.894L1620.49 326.745ZM1484.14 326.745C1491.51 322.587 1495.19 311.341 1495.19 293.009V170.541C1495.19 152.21 1491.51 141.153 1484.14 137.373H1534.03C1526.66 141.53 1522.97 152.682 1522.97 170.825V293.576C1522.97 311.908 1526.66 322.964 1534.03 326.745H1484.14ZM1767.84 326.745H1653.59C1660.96 322.587 1664.65 311.436 1664.65 293.293V170.541C1664.65 152.587 1660.96 141.814 1653.59 138.224L1746.58 137.373C1749.79 137.373 1752.25 136.995 1753.95 136.239L1754.8 168.274C1747.81 160.903 1736.66 157.217 1721.35 157.217C1710.57 157.217 1700.94 157.973 1692.43 159.485V213.916H1726.17C1731.65 213.916 1735.62 213.444 1738.07 212.498L1738.64 241.131C1735.05 236.406 1726.63 234.043 1713.41 234.043H1692.43V303.215C1714.93 305.861 1728.9 307.184 1734.39 307.184C1751.96 307.184 1766.89 301.703 1779.18 290.741L1767.84 326.745ZM1912.32 167.99C1908.54 160.808 1900.31 157.217 1887.66 157.217H1862.14V290.458C1862.14 301.798 1862.81 309.357 1864.13 313.137C1865.83 318.24 1869.61 322.776 1875.47 326.745H1823.59C1830.77 322.397 1834.36 311.531 1834.36 294.143V157.217H1809.41C1795.81 157.217 1784.93 160.808 1776.81 167.99L1785.32 135.389C1785.5 135.389 1786.92 135.672 1789.57 136.239C1792.4 136.618 1794.67 136.995 1796.37 137.373H1907.78C1912.7 137.373 1916.76 136.806 1919.97 135.672L1912.32 167.99Z" fill="#0D0A5B"/>
<path d="M1991.99 261.824C1990.11 264.092 1986.32 265.226 1980.65 265.226H1944.08C1934.08 265.226 1925.94 266.359 1919.7 268.627L1937.56 247.933C1939.46 245.665 1944.75 244.531 1953.44 244.531H1988.88C1997.01 244.531 2004 243.397 2009.85 241.129L1991.99 261.824ZM2156.55 326.743C2163.92 322.586 2167.6 311.906 2167.6 294.709V234.042H2065.83V293.575C2065.83 311.906 2069.43 322.963 2076.6 326.743H2027.56C2034.74 322.396 2038.33 311.529 2038.33 294.142V167.705C2038.33 151.262 2034.74 141.152 2027.56 137.371H2076.89C2069.51 141.529 2065.83 152.491 2065.83 170.256V213.914H2167.6V167.705C2167.6 151.262 2164.02 141.152 2156.83 137.371H2206.16C2198.79 141.529 2195.1 152.68 2195.1 170.823V293.575C2195.1 311.906 2198.79 322.963 2206.16 326.743H2156.55ZM2357.23 326.743V306.899C2345.32 323.153 2326.99 331.279 2302.23 331.279C2280.5 331.279 2263.58 324.475 2251.49 310.867C2245.43 303.875 2241.56 296.221 2239.86 287.905C2238.55 281.856 2237.88 270.707 2237.88 254.453V167.421C2237.88 151.167 2234.29 141.152 2227.11 137.371H2276.15C2268.96 141.719 2265.38 152.585 2265.38 169.973V254.453C2265.38 292.441 2280.3 311.434 2310.17 311.434C2328.13 311.434 2341.35 305.293 2349.86 293.008C2353.26 288.283 2355.43 283.936 2356.38 279.967C2356.95 277.511 2357.23 272.313 2357.23 264.375V169.689C2357.23 151.924 2353.64 141.152 2346.46 137.371H2397.2C2389.08 140.773 2385.01 152.018 2385.01 171.107V293.575C2385.01 311.906 2388.6 322.963 2395.78 326.743H2357.23ZM2502.33 325.609C2497.05 326.364 2484.86 326.743 2465.76 326.743H2421.54C2428.91 322.586 2432.59 311.623 2432.59 293.858V168.555C2432.59 152.113 2429.01 142.002 2421.82 138.222L2485.89 137.371C2501.4 136.993 2514.44 139.828 2525.01 145.876C2537.68 153.247 2544.01 164.208 2544.01 178.761C2544.01 195.015 2534.37 207.582 2515.09 216.465C2528.7 219.489 2539.67 225.158 2547.98 233.475C2557.05 242.735 2561.58 254.074 2561.58 267.493C2561.58 277.699 2558.56 287.433 2552.51 296.693C2541.37 313.135 2524.64 322.774 2502.33 325.609ZM2514.24 183.58C2514.24 178.289 2513.49 173.753 2511.97 169.973C2510.47 166.192 2508.1 163.357 2504.88 161.468C2501.68 159.389 2498.65 157.783 2495.81 156.649C2492.98 155.515 2488.92 154.948 2483.62 154.948C2478.52 154.948 2474.65 155.043 2472 155.231C2469.55 155.42 2465.58 155.798 2460.09 156.365V213.914H2469.73C2481.64 213.914 2491.48 211.834 2499.22 207.677C2509.24 202.196 2514.24 194.164 2514.24 183.58ZM2516.22 240.845C2504.88 233.286 2492.89 229.978 2480.22 230.923L2460.09 232.341V304.347C2479 306.237 2489.21 307.182 2490.71 307.182C2502.82 307.182 2512.54 303.969 2519.91 297.543C2527.48 290.928 2531.25 281.856 2531.25 270.328C2531.25 257.288 2526.25 247.461 2516.22 240.845Z" fill="#B1C000"/>
<defs>
<linearGradient id="paint0_linear_102_2" x1="421.372" y1="110.329" x2="173.48" y2="352.129" gradientUnits="userSpaceOnUse">
<stop stop-color="#CECFCF"/>
<stop offset="0.953493" stop-color="#E6E2E5"/>
</linearGradient>
<linearGradient id="paint1_linear_102_2" x1="474.843" y1="83.2917" x2="310.437" y2="561.615" gradientUnits="userSpaceOnUse">
<stop offset="0.040244" stop-color="#CCCECE"/>
<stop offset="0.739583" stop-color="#A8AAAB"/>
</linearGradient>
<linearGradient id="paint2_linear_102_2" x1="594.789" y1="5.98976" x2="556.329" y2="55.8727" gradientUnits="userSpaceOnUse">
<stop stop-color="#E3E2DA"/>
<stop offset="0.953493" stop-color="#EFEFEF"/>
</linearGradient>
<linearGradient id="paint3_linear_102_2" x1="661.81" y1="462.172" x2="341.857" y2="30.3854" gradientUnits="userSpaceOnUse">
<stop offset="0.15256" stop-color="#B0B2B4"/>
<stop offset="1" stop-color="#E9E7E8"/>
</linearGradient>
<linearGradient id="paint4_linear_102_2" x1="670.568" y1="498.729" x2="297.33" y2="69.4196" gradientUnits="userSpaceOnUse">
<stop stop-color="#D3D3D3"/>
<stop offset="0.947917" stop-color="#A8AAAB"/>
</linearGradient>
<linearGradient id="paint5_linear_102_2" x1="704.077" y1="640.003" x2="688.465" y2="607.256" gradientUnits="userSpaceOnUse">
<stop stop-color="#C0C0BA"/>
<stop offset="1" stop-color="#EFEFEF"/>
</linearGradient>
<linearGradient id="paint6_linear_102_2" x1="600.123" y1="95.4727" x2="600.123" y2="393.631" gradientUnits="userSpaceOnUse">
<stop offset="0.216346" stop-color="#6B7EB9"/>
<stop offset="1" stop-color="#EEEFF6"/>
</linearGradient>
<linearGradient id="paint7_linear_102_2" x1="529.688" y1="221.218" x2="533.95" y2="378.163" gradientUnits="userSpaceOnUse">
<stop offset="0.278472" stop-color="#C2D64D"/>
<stop offset="1" stop-color="#159034"/>
</linearGradient>
<linearGradient id="paint8_linear_102_2" x1="460.43" y1="275.023" x2="460.43" y2="386.296" gradientUnits="userSpaceOnUse">
<stop offset="0.278472" stop-color="#6B7EB9"/>
<stop offset="1" stop-color="#D6DDEF"/>
</linearGradient>
<linearGradient id="paint9_linear_102_2" x1="388.976" y1="280.535" x2="388.976" y2="416.096" gradientUnits="userSpaceOnUse">
<stop offset="0.451748" stop-color="#DEF086"/>
<stop offset="1" stop-color="#6FBB32"/>
</linearGradient>
<linearGradient id="paint10_linear_102_2" x1="318.91" y1="322.426" x2="318.91" y2="426.382" gradientUnits="userSpaceOnUse">
<stop stop-color="#7A88B7"/>
<stop offset="1" stop-color="#D7DAE3"/>
</linearGradient>
<linearGradient id="paint11_linear_102_2" x1="248.084" y1="374.375" x2="248.084" y2="441.03" gradientUnits="userSpaceOnUse">
<stop stop-color="#A4C600"/>
<stop offset="1" stop-color="#59A700"/>
</linearGradient>
<linearGradient id="paint12_linear_102_2" x1="123.756" y1="387.16" x2="796.948" y2="489.179" gradientUnits="userSpaceOnUse">
<stop offset="0.048973" stop-color="#A8AAAB"/>
<stop offset="0.355107" stop-color="#E1E4E4"/>
<stop offset="0.714196" stop-color="#E4E8E8"/>
<stop offset="0.999138" stop-color="#C0C3CE"/>
</linearGradient>
<linearGradient id="paint13_linear_102_2" x1="230.376" y1="446.942" x2="806.243" y2="409.14" gradientUnits="userSpaceOnUse">
<stop stop-color="#C6C9C9"/>
<stop offset="0.947917" stop-color="#A8AAAB"/>
</linearGradient>
<linearGradient id="paint14_linear_102_2" x1="5.14819" y1="311.619" x2="60.4331" y2="360.243" gradientUnits="userSpaceOnUse">
<stop stop-color="#CDCDCB"/>
<stop offset="1" stop-color="#EFEFEF"/>
</linearGradient>
</defs>
</svg>
