<svg width="2885" height="648" viewBox="0 0 2885 648" fill="none" xmlns="http://www.w3.org/2000/svg">
<path d="M827.882 285.807C848.799 285.807 868.538 297.297 878.849 315.562C884.152 324.401 886.804 334.417 886.804 344.728C886.804 355.04 884.152 365.056 878.849 374.189C868.538 392.455 848.799 403.65 827.882 403.65H769.256C743.33 403.65 721.529 386.268 714.753 362.405C713.575 357.691 712.986 352.683 712.986 347.38H753.347C753.347 354.45 757.766 360.343 763.953 362.405H827.882C837.604 362.405 845.264 354.45 845.264 344.728C845.264 335.006 837.604 327.052 827.882 327.052H771.907C755.409 327.052 739.795 319.981 728.6 308.197C725.654 304.956 723.002 301.421 720.646 297.297C715.637 288.459 712.986 278.442 712.986 268.131C712.986 257.819 715.637 247.803 720.646 238.965C730.957 220.404 750.695 209.209 771.907 209.209H831.418C857.343 209.209 879.144 226.591 885.625 250.454C887.098 255.168 887.687 260.176 887.687 265.479H847.326C847.326 258.409 842.907 252.517 836.426 250.454H771.907C762.185 250.454 754.231 258.409 754.231 268.131C754.231 277.853 762.185 285.807 771.907 285.807H827.882ZM998.354 209.799C1051.68 209.799 1095.28 253.4 1095.28 306.724C1095.28 360.343 1051.68 403.65 998.354 403.65C944.735 403.65 901.428 360.343 901.428 306.724C901.428 253.4 944.735 209.799 998.354 209.799ZM1054.62 306.724C1054.62 275.79 1029.29 250.454 998.354 250.454C967.125 250.454 941.789 275.79 941.789 306.724C941.789 337.952 967.125 363.289 998.354 363.289C1029.29 363.289 1054.62 337.952 1054.62 306.724ZM1249.16 209.504H1290.41V403.65H1249.16V321.16H1159.6V403.65H1118.36V209.504H1159.6V279.62H1249.16V209.504ZM1326.51 392.16L1390.44 276.969L1416.36 323.517L1374.24 399.82L1372.17 403.65H1320.32L1326.51 392.16ZM1539.22 392.16L1545.4 403.65H1493.55L1491.49 399.82L1452.6 329.703L1433.45 295.234L1432.86 294.056L1406.94 247.214L1409 243.384L1425.79 212.745L1427.85 208.62H1437.87L1439.64 212.745L1456.73 243.384L1539.22 392.16ZM1569.19 403.65V296.707L1610.43 337.952V403.65H1569.19ZM1735.35 207.736H1744.19V403.65H1702.94V298.475L1681.14 320.571L1672.6 328.82L1670.24 331.176L1662.87 338.836L1657.28 344.139L1629.58 316.446L1610.43 297.297L1569.19 256.052V207.736H1579.21L1618.68 247.214L1657.28 285.807L1735.35 207.736ZM1977.2 279.62H2085.91V321.16V403.65H2000.76C1974.25 403.65 1949.5 393.928 1930.94 375.662C1911.79 357.396 1901.48 332.944 1901.48 306.724C1901.48 280.504 1911.79 256.052 1930.94 237.492C1949.5 219.521 1974.25 209.504 2000.76 209.504H2085.32V250.749H1992.22C1963.64 254.873 1942.14 278.737 1942.14 306.724C1942.14 334.417 1963.64 358.28 1992.22 362.405H2044.37V321.16H1996.35L1993.99 316.446L1982.2 290.815L1977.2 279.62ZM2296.13 391.865L2303.2 403.65H2254.89L2252.53 400.114L2202.45 317.919C2201.27 318.214 2200.09 318.508 2198.91 318.803C2198.32 318.803 2197.73 318.803 2197.44 318.803C2197.14 319.098 2196.85 319.098 2196.55 319.098C2195.96 319.098 2195.38 319.098 2194.79 319.392C2194.49 319.392 2194.2 319.392 2193.9 319.392C2193.02 319.392 2192.43 319.687 2191.84 319.687C2190.96 319.687 2190.37 319.687 2189.78 319.687L2189.48 319.981H2188.89C2188.3 319.981 2187.72 319.981 2187.13 319.981C2187.13 319.981 2186.83 319.981 2186.54 319.981C2185.95 319.981 2185.65 319.981 2185.06 319.981H2184.47H2184.18H2183.89C2183.3 319.981 2182.71 320.276 2182.12 320.276H2156.49V403.65H2115.24V278.737H2182.12C2189.48 278.737 2196.85 277.263 2203.62 274.612C2203.92 274.317 2203.92 274.317 2204.21 274.317C2210.69 271.371 2216.29 267.541 2221.3 262.533C2225.13 258.998 2228.37 254.579 2231.02 249.865H2203.62H2115.24V208.62H2278.75L2279.04 215.985C2279.34 218.048 2279.34 220.404 2279.34 222.761C2279.34 229.832 2278.75 236.902 2276.98 243.973C2273.15 262.239 2263.72 278.737 2250.47 291.994C2248.99 293.467 2247.82 294.351 2246.64 295.529C2246.34 295.824 2245.75 296.413 2245.46 296.707C2245.46 296.707 2245.16 296.708 2245.16 297.002C2244.57 297.297 2243.99 297.886 2243.69 298.181C2243.1 298.475 2242.81 298.77 2242.22 299.064C2242.22 299.359 2241.92 299.654 2241.63 299.654L2241.33 299.948C2241.04 300.243 2240.74 300.537 2240.45 300.537L2296.13 391.865ZM2394.28 209.799C2447.61 209.799 2491.21 253.4 2491.21 306.724C2491.21 360.343 2447.61 403.65 2394.28 403.65C2340.66 403.65 2297.36 360.343 2297.36 306.724C2297.36 253.4 2340.66 209.799 2394.28 209.799ZM2450.55 306.724C2450.55 275.79 2425.22 250.454 2394.28 250.454C2363.05 250.454 2337.72 275.79 2337.72 306.724C2337.72 337.952 2363.05 363.289 2394.28 363.289C2425.22 363.289 2450.55 337.952 2450.55 306.724ZM2654.66 209.209H2695.9V330.882C2695.9 346.496 2690.3 361.521 2679.7 372.716C2675.87 376.84 2671.74 380.67 2667.03 384.206C2649.94 396.874 2629.91 403.65 2608.4 403.65C2586.9 403.65 2566.57 396.874 2549.78 384.206C2545.06 380.67 2540.94 376.84 2536.81 372.421C2526.5 361.226 2520.9 346.496 2520.9 330.587V209.209H2562.15V315.857C2562.15 340.604 2582.18 361.816 2606.63 362.405C2607.22 362.405 2607.81 362.405 2608.4 362.405C2608.99 362.405 2609.58 362.405 2610.17 362.405C2634.62 361.816 2654.66 340.898 2654.66 315.857V209.209ZM2847.42 212.155C2869.52 219.815 2884.84 240.438 2884.84 264.595C2884.84 278.737 2879.83 292.288 2870.11 302.305C2864.51 308.492 2857.44 313.205 2849.78 316.446C2849.78 316.446 2849.48 316.741 2842.12 318.508C2834.75 320.276 2833.58 320.276 2833.58 320.276H2766.99V403.65H2725.75V278.737H2766.99H2829.45C2837.41 278.737 2843.59 272.55 2843.59 264.595C2843.59 256.936 2837.41 250.454 2829.45 250.454C2829.16 250.454 2828.86 250.454 2828.57 250.454L2828.27 250.749H2821.5V250.454H2725.75V216.869V209.209H2832.1C2832.1 209.209 2836.52 209.799 2840.65 210.388C2844.77 211.272 2847.42 212.155 2847.42 212.155Z" fill="black"/>
<path fill-rule="evenodd" clip-rule="evenodd" d="M235.875 607.63C255.165 599.162 276.011 594.815 297.08 594.864ZM297.083 594.864C318.152 594.92 338.978 599.372 358.225 607.94C377.474 616.508 394.72 628.999 408.86 644.618C412.67 648.828 419.172 649.151 423.382 645.34C427.591 641.529 427.914 635.027 424.104 630.818C408.041 613.075 388.451 598.887 366.587 589.154C344.722 579.421 321.066 574.364 297.134 574.301L297.131 574.301C273.2 574.245 249.519 579.183 227.607 588.803L227.605 588.804C205.693 598.43 186.031 612.524 169.882 630.185C166.05 634.375 166.34 640.878 170.531 644.71C174.721 648.542 181.225 648.251 185.056 644.061C199.273 628.514 216.582 616.106 235.873 607.631" fill="#663200"/>
<path fill-rule="evenodd" clip-rule="evenodd" d="M216.817 33.2631C261.168 -11.0877 333.075 -11.0876 377.426 33.2631L469.202 125.04L507.443 163.28L545.683 201.521C556.243 212.081 556.242 229.201 545.683 239.761C535.123 250.321 518.002 250.321 507.442 239.761L469.203 201.52L430.962 163.281L339.186 71.5035C315.954 48.2721 278.288 48.2721 255.057 71.5035L71.5036 255.057C48.272 278.288 48.272 315.954 71.5036 339.186L255.057 522.739C278.289 545.971 315.954 545.971 339.186 522.739L507.182 354.742L555.627 303.577C565.895 292.733 583.009 292.266 593.853 302.533C604.697 312.801 605.165 329.915 594.897 340.759L545.944 392.461L377.426 560.979C333.075 605.33 261.168 605.33 216.817 560.979L33.2633 377.426C-11.0878 333.075 -11.0877 261.168 33.2633 216.817L216.817 33.2631Z" fill="#663200"/>
<path d="M90.7064 295.128C90.7064 280.194 102.812 268.088 117.746 268.088H570.265C588.555 268.088 603.386 282.916 603.386 301.207C603.386 312.783 593.999 322.168 582.421 322.168H117.747C102.812 322.168 90.7064 310.062 90.7064 295.128Z" fill="#663200"/>
<path d="M91.0751 295.235C91.0751 279.822 103.569 267.328 118.982 267.328H474.425C489.837 267.328 502.332 279.822 502.332 295.235C502.332 310.647 489.821 323.141 474.408 323.141C339.849 323.141 253.557 323.141 118.998 323.141C103.586 323.141 91.0751 310.647 91.0751 295.235Z" fill="#663200"/>
<path d="M276.671 96.6487L98.2326 275.087C87.6728 285.647 87.6728 302.767 98.2326 313.327C108.792 323.887 125.913 323.887 136.473 313.327L314.911 134.889C325.471 124.329 325.471 107.208 314.911 96.6486C304.351 86.0889 287.231 86.0889 276.671 96.6487Z" fill="#663200"/>
<path d="M275.549 495.498L165.692 385.642C155.133 375.082 155.133 357.961 165.692 347.401C176.252 336.842 193.373 336.842 203.933 347.401L313.789 457.257C324.349 467.817 324.349 484.938 313.789 495.498C303.229 506.058 286.108 506.058 275.549 495.498Z" fill="#663200"/>
<path d="M496.554 276.253C507.113 286.813 507.113 303.934 496.554 314.494L316.092 494.956C305.532 505.516 288.411 505.516 277.851 494.956C267.292 484.396 267.292 467.275 277.851 456.715L458.313 276.253C468.873 265.694 485.994 265.694 496.554 276.253Z" fill="#663200"/>
<path d="M315.314 96.93L407.225 188.841C417.785 199.401 417.785 216.521 407.225 227.081C396.665 237.641 379.545 237.641 368.985 227.081L277.074 135.17C266.514 124.611 266.514 107.49 277.074 96.93C287.634 86.3703 304.755 86.3703 315.314 96.93Z" fill="#663200"/>
<path d="M609.873 309.189C609.873 331.888 591.472 350.29 568.774 350.29C546.074 350.29 547.142 331.888 547.142 309.189C547.142 286.49 546.074 268.088 568.774 268.088C591.472 268.088 609.873 286.49 609.873 309.189Z" fill="#663200"/>
</svg>
